<svg class="main-svg" xmlns="http://www.w3.org/2000/svg" xmlns:xlink="http://www.w3.org/1999/xlink" width="1000" height="800" style="" viewBox="0 0 1000 800"><rect x="0" y="0" width="1000" height="800" style="fill: rgb(255, 255, 255); fill-opacity: 1;"/><defs id="defs-809b75"><g class="clips"/><g class="gradients"><linearGradient x1="0" x2="0" y1="1" y2="0" id="g809b75-cbcoloraxis"><stop offset="0%" stop-color="rgb(247, 252, 245)" stop-opacity="1"/><stop offset="12.5%" stop-color="rgb(229, 245, 224)" stop-opacity="1"/><stop offset="25%" stop-color="rgb(199, 233, 192)" stop-opacity="1"/><stop offset="37.5%" stop-color="rgb(161, 217, 155)" stop-opacity="1"/><stop offset="50%" stop-color="rgb(116, 196, 118)" stop-opacity="1"/><stop offset="62.5%" stop-color="rgb(65, 171, 93)" stop-opacity="1"/><stop offset="75%" stop-color="rgb(35, 139, 69)" stop-opacity="1"/><stop offset="87.5%" stop-color="rgb(0, 109, 44)" stop-opacity="1"/><stop offset="100%" stop-color="rgb(0, 68, 27)" stop-opacity="1"/></linearGradient></g><g class="patterns"/></defs><g class="bglayer"/><g class="layer-below"><g class="imagelayer"/><g class="shapelayer"/></g><g class="cartesianlayer"/><g class="polarlayer"/><g class="smithlayer"/><g class="ternarylayer"/><g class="geolayer"/><g class="funnelarealayer"/><g class="pielayer"/><g class="iciclelayer"/><g class="treemaplayer"><g class="trace treemap" style="opacity: 1;"><g class="slice cursor-pointer"><path class="surface" d="M25,55a5,5 0 0 1 5,-5L880,50a5,5 0 0 1 5,5L885,770a5,5 0 0 1 -5,5L30,775a5,5 0 0 1 -5,-5Z" style="pointer-events: none; fill: rgb(68, 68, 68); fill-opacity: 1; stroke-width: 1; stroke: rgb(255, 255, 255); stroke-opacity: 1; opacity: 1;"/><g class="slicetext"><text data-notex="1" class="slicetext" text-anchor="start" x="0" y="0" style="font-family: 'Open Sans', verdana, arial, sans-serif; font-size: 12px; fill: rgb(255, 255, 255); fill-opacity: 1; white-space: pre;" transform="translate(31,64)"> </text></g></g><g class="slice cursor-pointer"><path class="surface" d="M31,79a5,5 0 0 1 5,-5L249.69167758846658,74a5,5 0 0 1 5,5L254.69167758846658,325.2816728167282a5,5 0 0 1 -5,5L36,330.2816728167282a5,5 0 0 1 -5,-5Z" style="pointer-events: none; stroke-width: 1; fill: rgb(0, 68, 27); fill-opacity: 1; stroke: rgb(255, 255, 255); stroke-opacity: 1; opacity: 1;"/><g class="slicetext"><text data-notex="1" class="slicetext" text-anchor="start" x="0" y="0" style="font-family: 'Open Sans', verdana, arial, sans-serif; font-size: 12px; fill: rgb(255, 255, 255); fill-opacity: 1; white-space: pre;" transform="translate(34,88)">Pueblos Originarios</text></g></g><g class="slice cursor-pointer"><path class="surface" d="M31,338.2816728167282a5,5 0 0 1 5,-5L249.69167758846658,333.2816728167282a5,5 0 0 1 5,5L254.69167758846658,554.5141451414514a5,5 0 0 1 -5,5L36,559.5141451414514a5,5 0 0 1 -5,-5Z" style="pointer-events: none; stroke-width: 1; fill: rgb(0, 106, 43); fill-opacity: 1; stroke: rgb(255, 255, 255); stroke-opacity: 1; opacity: 1;"/><g class="slicetext"><text data-notex="1" class="slicetext" text-anchor="start" x="0" y="0" style="font-family: 'Open Sans', verdana, arial, sans-serif; font-size: 12px; fill: rgb(255, 255, 255); fill-opacity: 1; white-space: pre;" transform="translate(35,347.2816728167282)">Territorio</text></g></g><g class="slice cursor-pointer"><path class="surface" d="M31,567.5141451414514a5,5 0 0 1 5,-5L249.69167758846658,562.5141451414514a5,5 0 0 1 5,5L254.69167758846658,764a5,5 0 0 1 -5,5L36,769a5,5 0 0 1 -5,-5Z" style="pointer-events: none; stroke-width: 1; fill: rgb(19, 125, 58); fill-opacity: 1; stroke: rgb(255, 255, 255); stroke-opacity: 1; opacity: 1;"/><g class="slicetext"><text data-notex="1" class="slicetext" text-anchor="start" x="0" y="0" style="font-family: 'Open Sans', verdana, arial, sans-serif; font-size: 12px; fill: rgb(255, 255, 255); fill-opacity: 1; white-space: pre;" transform="translate(34,576.5141451414514)">Estado</text></g></g><g class="slice cursor-pointer"><path class="surface" d="M257.6916775884666,79a5,5 0 0 1 5,-5L465.32448631613437,74a5,5 0 0 1 5,5L470.32448631613437,255.5417597141581a5,5 0 0 1 -5,5L262.6916775884666,260.5417597141581a5,5 0 0 1 -5,-5Z" style="pointer-events: none; stroke-width: 1; fill: rgb(48, 153, 80); fill-opacity: 1; stroke: rgb(255, 255, 255); stroke-opacity: 1; opacity: 1;"/><g class="slicetext"><text data-notex="1" class="slicetext" text-anchor="start" x="0" y="0" style="font-family: 'Open Sans', verdana, arial, sans-serif; font-size: 12px; fill: rgb(255, 255, 255); fill-opacity: 1; white-space: pre;" transform="translate(260.6916775884666,88)">Voto</text></g></g><g class="slice cursor-pointer"><path class="surface" d="M473.32448631613437,79a5,5 0 0 1 5,-5L672.7427118541767,74a5,5 0 0 1 5,5L677.7427118541767,255.5417597141581a5,5 0 0 1 -5,5L478.32448631613437,260.5417597141581a5,5 0 0 1 -5,-5Z" style="pointer-events: none; stroke-width: 1; fill: rgb(55, 160, 85); fill-opacity: 1; stroke: rgb(255, 255, 255); stroke-opacity: 1; opacity: 1;"/><g class="slicetext"><text data-notex="1" class="slicetext" text-anchor="start" x="0" y="0" style="font-family: 'Open Sans', verdana, arial, sans-serif; font-size: 12px; fill: rgb(255, 255, 255); fill-opacity: 1; white-space: pre;" transform="translate(476.32448631613437,88)">Reforma</text></g></g><g class="slice cursor-pointer"><path class="surface" d="M680.7427118541767,79a5,5 0 0 1 5,-5L874,74a5,5 0 0 1 5,5L879,255.5417597141581a5,5 0 0 1 -5,5L685.7427118541767,260.5417597141581a5,5 0 0 1 -5,-5Z" style="pointer-events: none; stroke-width: 1; fill: rgb(60, 165, 89); fill-opacity: 1; stroke: rgb(255, 255, 255); stroke-opacity: 1; opacity: 1;"/><g class="slicetext"><text data-notex="1" class="slicetext" text-anchor="start" x="0" y="0" style="font-family: 'Open Sans', verdana, arial, sans-serif; font-size: 12px; fill: rgb(255, 255, 255); fill-opacity: 1; white-space: pre;" transform="translate(683.7427118541767,88)">Historia</text></g></g><g class="slice cursor-pointer"><path class="surface" d="M257.6916775884666,268.5417597141581a5,5 0 0 1 5,-5L411.98887483094984,263.5417597141581a5,5 0 0 1 5,5L416.98887483094984,447.41279378428715a5,5 0 0 1 -5,5L262.6916775884666,452.41279378428715a5,5 0 0 1 -5,-5Z" style="pointer-events: none; stroke-width: 1; fill: rgb(104, 190, 112); fill-opacity: 1; stroke: rgb(255, 255, 255); stroke-opacity: 1; opacity: 1;"/><g class="slicetext"><text data-notex="1" class="slicetext" text-anchor="start" x="0" y="0" style="font-family: 'Open Sans', verdana, arial, sans-serif; font-size: 12px; fill: rgb(68, 68, 68); fill-opacity: 1; white-space: pre;" transform="translate(260.6916775884666,277.5417597141581)">Ejecutivo</text></g></g><g class="slice cursor-pointer"><path class="surface" d="M257.6916775884666,460.41279378428715a5,5 0 0 1 5,-5L411.98887483094984,455.41279378428715a5,5 0 0 1 5,5L416.98887483094984,634.487052002663a5,5 0 0 1 -5,5L262.6916775884666,639.487052002663a5,5 0 0 1 -5,-5Z" style="pointer-events: none; stroke-width: 1; fill: rgb(110, 193, 115); fill-opacity: 1; stroke: rgb(255, 255, 255); stroke-opacity: 1; opacity: 1;"/><g class="slicetext"><text data-notex="1" class="slicetext" text-anchor="start" x="0" y="0" style="font-family: 'Open Sans', verdana, arial, sans-serif; font-size: 12px; fill: rgb(68, 68, 68); fill-opacity: 1; white-space: pre;" transform="translate(260.6916775884666,469.41279378428715)">Educacion</text></g></g><g class="slice cursor-pointer"><path class="surface" d="M257.6916775884666,647.487052002663a5,5 0 0 1 5,-5L411.98887483094984,642.487052002663a5,5 0 0 1 5,5L416.98887483094984,764a5,5 0 0 1 -5,5L262.6916775884666,769a5,5 0 0 1 -5,-5Z" style="pointer-events: none; stroke-width: 1; fill: rgb(167, 219, 161); fill-opacity: 1; stroke: rgb(255, 255, 255); stroke-opacity: 1; opacity: 1;"/><g class="slicetext"><text data-notex="1" class="slicetext" text-anchor="start" x="0" y="0" style="font-family: 'Open Sans', verdana, arial, sans-serif; font-size: 12px; fill: rgb(68, 68, 68); fill-opacity: 1; white-space: pre;" transform="translate(260.6916775884666,656.487052002663)">Familia</text></g></g><g class="slice cursor-pointer"><path class="surface" d="M419.98887483094984,268.5417597141581a5,5 0 0 1 5,-5L544.7662656419965,263.5417597141581a5,5 0 0 1 5,5L549.7662656419965,399.1906908968193a5,5 0 0 1 -5,5L424.98887483094984,404.1906908968193a5,5 0 0 1 -5,-5Z" style="pointer-events: none; stroke-width: 1; fill: rgb(177, 224, 171); fill-opacity: 1; stroke: rgb(255, 255, 255); stroke-opacity: 1; opacity: 1;"/><g class="slicetext"><text data-notex="1" class="slicetext" text-anchor="start" x="0" y="0" style="font-family: 'Open Sans', verdana, arial, sans-serif; font-size: 12px; fill: rgb(68, 68, 68); fill-opacity: 1; white-space: pre;" transform="translate(422.98887483094984,277.5417597141581)">Distrito</text></g></g><g class="slice cursor-pointer"><path class="surface" d="M552.7662656419965,268.5417597141581a5,5 0 0 1 5,-5L662.6400717701706,263.5417597141581a5,5 0 0 1 5,5L667.6400717701706,399.1906908968193a5,5 0 0 1 -5,5L557.7662656419965,404.1906908968193a5,5 0 0 1 -5,-5Z" style="pointer-events: none; stroke-width: 1; fill: rgb(188, 228, 181); fill-opacity: 1; stroke: rgb(255, 255, 255); stroke-opacity: 1; opacity: 1;"/><g class="slicetext"><text data-notex="1" class="slicetext" text-anchor="start" x="0" y="0" style="font-family: 'Open Sans', verdana, arial, sans-serif; font-size: 12px; fill: rgb(68, 68, 68); fill-opacity: 1; white-space: pre;" transform="translate(555.7662656419965,277.5417597141581)">Cultura</text></g></g><g class="slice cursor-pointer"><path class="surface" d="M670.6400717701706,268.5417597141581a5,5 0 0 1 5,-5L775.0943925591183,263.5417597141581a5,5 0 0 1 5,5L780.0943925591183,399.1906908968193a5,5 0 0 1 -5,5L675.6400717701706,404.1906908968193a5,5 0 0 1 -5,-5Z" style="pointer-events: none; stroke-width: 1; fill: rgb(192, 230, 185); fill-opacity: 1; stroke: rgb(255, 255, 255); stroke-opacity: 1; opacity: 1;"/><g class="slicetext"><text data-notex="1" class="slicetext" text-anchor="start" x="0" y="0" style="font-family: 'Open Sans', verdana, arial, sans-serif; font-size: 12px; fill: rgb(68, 68, 68); fill-opacity: 1; white-space: pre;" transform="translate(673.6400717701706,277.5417597141581)">Igualdad</text></g></g><g class="slice cursor-pointer"><path class="surface" d="M783.0943925591183,268.5417597141581a5,5 0 0 1 5,-5L874,263.5417597141581a5,5 0 0 1 5,5L879,399.1906908968193a5,5 0 0 1 -5,5L788.0943925591183,404.1906908968193a5,5 0 0 1 -5,-5Z" style="pointer-events: none; stroke-width: 1; fill: rgb(202, 234, 195); fill-opacity: 1; stroke: rgb(255, 255, 255); stroke-opacity: 1; opacity: 1;"/><g class="slicetext"><text data-notex="1" class="slicetext" text-anchor="start" x="0" y="0" style="font-family: 'Open Sans', verdana, arial, sans-serif; font-size: 12px; fill: rgb(68, 68, 68); fill-opacity: 1; white-space: pre;" transform="translate(786.0943925591183,274.9820247679494)scale(0.7672968230719333)">Derechos Humanos</text></g></g><g class="slice cursor-pointer"><path class="surface" d="M419.98887483094984,412.1906908968193a5,5 0 0 1 5,-5L514.9544027265927,407.1906908968193a5,5 0 0 1 5,5L519.9544027265927,535.285355432721a5,5 0 0 1 -5,5L424.98887483094984,540.285355432721a5,5 0 0 1 -5,-5Z" style="pointer-events: none; stroke-width: 1; fill: rgb(202, 234, 196); fill-opacity: 1; stroke: rgb(255, 255, 255); stroke-opacity: 1; opacity: 1;"/><g class="slicetext"><text data-notex="1" class="slicetext" text-anchor="start" x="0" y="0" style="font-family: 'Open Sans', verdana, arial, sans-serif; font-size: 12px; fill: rgb(68, 68, 68); fill-opacity: 1; white-space: pre;" transform="translate(422.98887483094984,421.1906908968193)">Presupuesto</text></g></g><g class="slice cursor-pointer"><path class="surface" d="M419.98887483094984,548.285355432721a5,5 0 0 1 5,-5L514.9544027265927,543.285355432721a5,5 0 0 1 5,5L519.9544027265927,650.5877795534154a5,5 0 0 1 -5,5L424.98887483094984,655.5877795534154a5,5 0 0 1 -5,-5Z" style="pointer-events: none; stroke-width: 1; fill: rgb(211, 238, 205); fill-opacity: 1; stroke: rgb(255, 255, 255); stroke-opacity: 1; opacity: 1;"/><g class="slicetext"><text data-notex="1" class="slicetext" text-anchor="start" x="0" y="0" style="font-family: 'Open Sans', verdana, arial, sans-serif; font-size: 12px; fill: rgb(68, 68, 68); fill-opacity: 1; white-space: pre;" transform="translate(422.98887483094984,557.285355432721)">Legislativo</text></g></g><g class="slice cursor-pointer"><path class="surface" d="M419.98887483094984,663.5877795534154a5,5 0 0 1 5,-5L514.9544027265927,658.5877795534154a5,5 0 0 1 5,5L519.9544027265927,764.0000000000001a5,5 0 0 1 -5,5L424.98887483094984,769.0000000000001a5,5 0 0 1 -5,-5Z" style="pointer-events: none; stroke-width: 1; fill: rgb(212, 238, 206); fill-opacity: 1; stroke: rgb(255, 255, 255); stroke-opacity: 1; opacity: 1;"/><g class="slicetext"><text data-notex="1" class="slicetext" text-anchor="start" x="0" y="0" style="font-family: 'Open Sans', verdana, arial, sans-serif; font-size: 12px; fill: rgb(68, 68, 68); fill-opacity: 1; white-space: pre;" transform="translate(422.98887483094984,668.3690949443464)scale(0.6164832173573697)">Derechos Fundamentales</text></g></g><g class="slice cursor-pointer"><path class="surface" d="M522.9544027265927,412.1906908968193a5,5 0 0 1 5,-5L625.8637757063362,407.1906908968193a5,5 0 0 1 5,5L630.8637757063362,502.724982187618a5,5 0 0 1 -5,5L527.9544027265927,507.724982187618a5,5 0 0 1 -5,-5Z" style="pointer-events: none; stroke-width: 1; fill: rgb(213, 239, 207); fill-opacity: 1; stroke: rgb(255, 255, 255); stroke-opacity: 1; opacity: 1;"/><g class="slicetext"><text data-notex="1" class="slicetext" text-anchor="start" x="0" y="0" style="font-family: 'Open Sans', verdana, arial, sans-serif; font-size: 12px; fill: rgb(68, 68, 68); fill-opacity: 1; white-space: pre;" transform="translate(525.9544027265927,418.65009410136355)scale(0.7690366549585649)">Derecho Internacional</text></g></g><g class="slice cursor-pointer"><path class="surface" d="M633.8637757063362,412.1906908968193a5,5 0 0 1 5,-5L717.9749498759538,407.1906908968193a5,5 0 0 1 5,5L722.9749498759538,502.724982187618a5,5 0 0 1 -5,5L638.8637757063362,507.724982187618a5,5 0 0 1 -5,-5Z" style="pointer-events: none; stroke-width: 1; fill: rgb(221, 242, 215); fill-opacity: 1; stroke: rgb(255, 255, 255); stroke-opacity: 1; opacity: 1;"/><g class="slicetext"><text data-notex="1" class="slicetext" text-anchor="start" x="0" y="0" style="font-family: 'Open Sans', verdana, arial, sans-serif; font-size: 12px; fill: rgb(68, 68, 68); fill-opacity: 1; white-space: pre;" transform="translate(636.8637757063362,421.1906908968193)">Censura</text></g></g><g class="slice cursor-pointer"><path class="surface" d="M725.9749498759538,412.1906908968193a5,5 0 0 1 5,-5L796.9273848784832,407.1906908968193a5,5 0 0 1 5,5L801.9273848784832,502.724982187618a5,5 0 0 1 -5,5L730.9749498759538,507.724982187618a5,5 0 0 1 -5,-5Z" style="pointer-events: none; stroke-width: 1; fill: rgb(226, 244, 221); fill-opacity: 1; stroke: rgb(255, 255, 255); stroke-opacity: 1; opacity: 1;"/><g class="slicetext"><text data-notex="1" class="slicetext" text-anchor="start" x="0" y="0" style="font-family: 'Open Sans', verdana, arial, sans-serif; font-size: 12px; fill: rgb(68, 68, 68); fill-opacity: 1; white-space: pre;" transform="translate(728.9749498759538,419.2650439909377)scale(0.8249411903744017)">Comunicacion</text></g></g><g class="slice cursor-pointer"><path class="surface" d="M804.9273848784832,412.1906908968193a5,5 0 0 1 5,-5L873.9999999999999,407.1906908968193a5,5 0 0 1 5,5L878.9999999999999,502.724982187618a5,5 0 0 1 -5,5L809.9273848784832,507.724982187618a5,5 0 0 1 -5,-5Z" style="pointer-events: none; stroke-width: 1; fill: rgb(227, 244, 222); fill-opacity: 1; stroke: rgb(255, 255, 255); stroke-opacity: 1; opacity: 1;"/><g class="slicetext"><text data-notex="1" class="slicetext" text-anchor="start" x="0" y="0" style="font-family: 'Open Sans', verdana, arial, sans-serif; font-size: 12px; fill: rgb(68, 68, 68); fill-opacity: 1; white-space: pre;" transform="translate(807.9273848784832,417.0290357948712)scale(0.6216677180047189)">Derechos Sociales</text></g></g><g class="slice cursor-pointer"><path class="surface" d="M522.9544027265927,515.724982187618a5,5 0 0 1 5,-5L603.5984402277036,510.724982187618a5,5 0 0 1 5,5L608.5984402277036,592.744105971716a5,5 0 0 1 -5,5L527.9544027265927,597.744105971716a5,5 0 0 1 -5,-5Z" style="pointer-events: none; stroke-width: 1; fill: rgb(227, 244, 222); fill-opacity: 1; stroke: rgb(255, 255, 255); stroke-opacity: 1; opacity: 1;"/><g class="slicetext"><text data-notex="1" class="slicetext" text-anchor="start" x="0" y="0" style="font-family: 'Open Sans', verdana, arial, sans-serif; font-size: 12px; fill: rgb(68, 68, 68); fill-opacity: 1; white-space: pre;" transform="translate(525.9544027265927,524.724982187618)">Religion</text></g></g><g class="slice cursor-pointer"><path class="surface" d="M522.9544027265927,605.744105971716a5,5 0 0 1 5,-5L603.5984402277036,600.744105971716a5,5 0 0 1 5,5L608.5984402277036,680.5676413708359a5,5 0 0 1 -5,5L527.9544027265927,685.5676413708359a5,5 0 0 1 -5,-5Z" style="pointer-events: none; stroke-width: 1; fill: rgb(228, 245, 223); fill-opacity: 1; stroke: rgb(255, 255, 255); stroke-opacity: 1; opacity: 1;"/><g class="slicetext"><text data-notex="1" class="slicetext" text-anchor="start" x="0" y="0" style="font-family: 'Open Sans', verdana, arial, sans-serif; font-size: 12px; fill: rgb(68, 68, 68); fill-opacity: 1; white-space: pre;" transform="translate(525.9544027265927,614.744105971716)">Propiedad</text></g></g><g class="slice cursor-pointer"><path class="surface" d="M522.9544027265927,693.5676413708359a5,5 0 0 1 5,-5L603.5984402277036,688.5676413708359a5,5 0 0 1 5,5L608.5984402277036,763.9999999999999a5,5 0 0 1 -5,5L527.9544027265927,768.9999999999999a5,5 0 0 1 -5,-5Z" style="pointer-events: none; stroke-width: 1; fill: rgb(229, 245, 224); fill-opacity: 1; stroke: rgb(255, 255, 255); stroke-opacity: 1; opacity: 1;"/><g class="slicetext"><text data-notex="1" class="slicetext" text-anchor="start" x="0" y="0" style="font-family: 'Open Sans', verdana, arial, sans-serif; font-size: 12px; fill: rgb(68, 68, 68); fill-opacity: 1; white-space: pre;" transform="translate(525.9544027265927,697.4197864914686)scale(0.5320131927847926)">Medios de Comunicacion</text></g></g><g class="slice cursor-pointer"><path class="surface" d="M611.5984402277036,515.724982187618a5,5 0 0 1 5,-5L677.3443201656025,510.724982187618a5,5 0 0 1 5,5L682.3443201656025,595.0949379798743a5,5 0 0 1 -5,5L616.5984402277036,600.0949379798743a5,5 0 0 1 -5,-5Z" style="pointer-events: none; stroke-width: 1; fill: rgb(231, 246, 226); fill-opacity: 1; stroke: rgb(255, 255, 255); stroke-opacity: 1; opacity: 1;"/><g class="slicetext"><text data-notex="1" class="slicetext" text-anchor="start" x="0" y="0" style="font-family: 'Open Sans', verdana, arial, sans-serif; font-size: 12px; fill: rgb(68, 68, 68); fill-opacity: 1; white-space: pre;" transform="translate(614.5984402277036,524.724982187618)">Simbolos</text></g></g><g class="slice cursor-pointer"><path class="surface" d="M611.5984402277036,608.0949379798743a5,5 0 0 1 5,-5L677.3443201656025,603.0949379798743a5,5 0 0 1 5,5L682.3443201656025,684.8257521780661a5,5 0 0 1 -5,5L616.5984402277036,689.8257521780661a5,5 0 0 1 -5,-5Z" style="pointer-events: none; stroke-width: 1; fill: rgb(231, 246, 227); fill-opacity: 1; stroke: rgb(255, 255, 255); stroke-opacity: 1; opacity: 1;"/><g class="slicetext"><text data-notex="1" class="slicetext" text-anchor="start" x="0" y="0" style="font-family: 'Open Sans', verdana, arial, sans-serif; font-size: 12px; fill: rgb(68, 68, 68); fill-opacity: 1; white-space: pre;" transform="translate(615.5984402277036,617.0949379798743)">Judicial</text></g></g><g class="slice cursor-pointer"><path class="surface" d="M611.5984402277036,697.8257521780661a5,5 0 0 1 5,-5L677.3443201656025,692.8257521780661a5,5 0 0 1 5,5L682.3443201656025,764a5,5 0 0 1 -5,5L616.5984402277036,769a5,5 0 0 1 -5,-5Z" style="pointer-events: none; stroke-width: 1; fill: rgb(233, 247, 229); fill-opacity: 1; stroke: rgb(255, 255, 255); stroke-opacity: 1; opacity: 1;"/><g class="slicetext"><text data-notex="1" class="slicetext" text-anchor="start" x="0" y="0" style="font-family: 'Open Sans', verdana, arial, sans-serif; font-size: 12px; fill: rgb(68, 68, 68); fill-opacity: 1; white-space: pre;" transform="translate(614.5984402277036,706.8257521780661)">Economia</text></g></g><g class="slice cursor-pointer"><path class="surface" d="M685.3443201656025,515.724982187618a5,5 0 0 1 5,-5L745.2373524893826,510.724982187618a5,5 0 0 1 5,5L750.2373524893826,585.8579424006487a5,5 0 0 1 -5,5L690.3443201656025,590.8579424006487a5,5 0 0 1 -5,-5Z" style="pointer-events: none; stroke-width: 1; fill: rgb(234, 247, 229); fill-opacity: 1; stroke: rgb(255, 255, 255); stroke-opacity: 1; opacity: 1;"/><g class="slicetext"><text data-notex="1" class="slicetext" text-anchor="start" x="0" y="0" style="font-family: 'Open Sans', verdana, arial, sans-serif; font-size: 12px; fill: rgb(68, 68, 68); fill-opacity: 1; white-space: pre;" transform="translate(688.3443201656025,524.724982187618)">Ciencia</text></g></g><g class="slice cursor-pointer"><path class="surface" d="M753.2373524893826,515.724982187618a5,5 0 0 1 5,-5L813.1303848131627,510.724982187618a5,5 0 0 1 5,5L818.1303848131627,585.8579424006487a5,5 0 0 1 -5,5L758.2373524893826,590.8579424006487a5,5 0 0 1 -5,-5Z" style="pointer-events: none; stroke-width: 1; fill: rgb(234, 247, 229); fill-opacity: 1; stroke: rgb(255, 255, 255); stroke-opacity: 1; opacity: 1;"/><g class="slicetext"><text data-notex="1" class="slicetext" text-anchor="start" x="0" y="0" style="font-family: 'Open Sans', verdana, arial, sans-serif; font-size: 12px; fill: rgb(68, 68, 68); fill-opacity: 1; white-space: pre;" transform="translate(756.2373524893826,524.724982187618)">Mercado</text></g></g><g class="slice cursor-pointer"><path class="surface" d="M821.1303848131627,515.724982187618a5,5 0 0 1 5,-5L874,510.724982187618a5,5 0 0 1 5,5L879,585.8579424006487a5,5 0 0 1 -5,5L826.1303848131627,590.8579424006487a5,5 0 0 1 -5,-5Z" style="pointer-events: none; stroke-width: 1; fill: rgb(235, 247, 231); fill-opacity: 1; stroke: rgb(255, 255, 255); stroke-opacity: 1; opacity: 1;"/><g class="slicetext"><text data-notex="1" class="slicetext" text-anchor="start" x="0" y="0" style="font-family: 'Open Sans', verdana, arial, sans-serif; font-size: 12px; fill: rgb(68, 68, 68); fill-opacity: 1; white-space: pre;" transform="translate(824.1303848131627,524.724982187618)">FFAA</text></g></g><g class="slice cursor-pointer"><path class="surface" d="M685.3443201656025,598.8579424006487a5,5 0 0 1 5,-5L745.0812765530061,593.8579424006487a5,5 0 0 1 5,5L750.0812765530061,651.9428992520209a5,5 0 0 1 -5,5L690.3443201656025,656.9428992520209a5,5 0 0 1 -5,-5Z" style="pointer-events: none; stroke-width: 1; fill: rgb(236, 248, 233); fill-opacity: 1; stroke: rgb(255, 255, 255); stroke-opacity: 1; opacity: 1;"/><g class="slicetext"><text data-notex="1" class="slicetext" text-anchor="start" x="0" y="0" style="font-family: 'Open Sans', verdana, arial, sans-serif; font-size: 12px; fill: rgb(68, 68, 68); fill-opacity: 1; white-space: pre;" transform="translate(688.3443201656025,601.2738776096119)scale(0.40144865536029767)">Reformas y Constitucion</text></g></g><g class="slice cursor-pointer"><path class="surface" d="M685.3443201656025,664.9428992520209a5,5 0 0 1 5,-5L745.0812765530061,659.9428992520209a5,5 0 0 1 5,5L750.0812765530061,709.4080791227793a5,5 0 0 1 -5,5L690.3443201656025,714.4080791227793a5,5 0 0 1 -5,-5Z" style="pointer-events: none; stroke-width: 1; fill: rgb(238, 248, 234); fill-opacity: 1; stroke: rgb(255, 255, 255); stroke-opacity: 1; opacity: 1;"/><g class="slicetext"><text data-notex="1" class="slicetext" text-anchor="start" x="0" y="0" style="font-family: 'Open Sans', verdana, arial, sans-serif; font-size: 12px; fill: rgb(68, 68, 68); fill-opacity: 1; white-space: pre;" transform="translate(688.3443201656025,673.9428992520209)">Eleccion</text></g></g><g class="slice cursor-pointer"><path class="surface" d="M685.3443201656025,722.4080791227793a5,5 0 0 1 5,-5L745.0812765530061,717.4080791227793a5,5 0 0 1 5,5L750.0812765530061,763.9999999999999a5,5 0 0 1 -5,5L690.3443201656025,768.9999999999999a5,5 0 0 1 -5,-5Z" style="pointer-events: none; stroke-width: 1; fill: rgb(238, 249, 235); fill-opacity: 1; stroke: rgb(255, 255, 255); stroke-opacity: 1; opacity: 1;"/><g class="slicetext"><text data-notex="1" class="slicetext" text-anchor="start" x="0" y="0" style="font-family: 'Open Sans', verdana, arial, sans-serif; font-size: 12px; fill: rgb(68, 68, 68); fill-opacity: 1; white-space: pre;" transform="translate(688.3443201656025,731.4080791227793)">Frontera</text></g></g><g class="slice cursor-pointer"><path class="surface" d="M753.0812765530061,598.8579424006487a5,5 0 0 1 5,-5L809.540638276503,593.8579424006487a5,5 0 0 1 5,5L814.540638276503,640.2063667529932a5,5 0 0 1 -5,5L758.0812765530061,645.2063667529932a5,5 0 0 1 -5,-5Z" style="pointer-events: none; stroke-width: 1; fill: rgb(239, 249, 236); fill-opacity: 1; stroke: rgb(255, 255, 255); stroke-opacity: 1; opacity: 1;"/><g class="slicetext"><text data-notex="1" class="slicetext" text-anchor="start" x="0" y="0" style="font-family: 'Open Sans', verdana, arial, sans-serif; font-size: 12px; fill: rgb(68, 68, 68); fill-opacity: 1; white-space: pre;" transform="translate(756.0812765530061,607.8579424006487)">Deber</text></g></g><g class="slice cursor-pointer"><path class="surface" d="M817.540638276503,598.8579424006487a5,5 0 0 1 5,-5L874,593.8579424006487a5,5 0 0 1 5,5L879,640.2063667529932a5,5 0 0 1 -5,5L822.540638276503,645.2063667529932a5,5 0 0 1 -5,-5Z" style="pointer-events: none; stroke-width: 1; fill: rgb(239, 249, 236); fill-opacity: 1; stroke: rgb(255, 255, 255); stroke-opacity: 1; opacity: 1;"/><g class="slicetext"><text data-notex="1" class="slicetext" text-anchor="start" x="0" y="0" style="font-family: 'Open Sans', verdana, arial, sans-serif; font-size: 12px; fill: rgb(68, 68, 68); fill-opacity: 1; white-space: pre;" transform="translate(821.540638276503,607.8579424006487)">Trabajo</text></g></g><g class="slice cursor-pointer"><path class="surface" d="M753.0812765530061,653.2063667529932a5,5 0 0 1 5,-5L792.2466631799551,648.2063667529932a5,5 0 0 1 5,5L797.2466631799551,706.2296378180635a5,5 0 0 1 -5,5L758.0812765530061,711.2296378180635a5,5 0 0 1 -5,-5Z" style="pointer-events: none; stroke-width: 1; fill: rgb(240, 249, 237); fill-opacity: 1; stroke: rgb(255, 255, 255); stroke-opacity: 1; opacity: 1;"/><g class="slicetext"><text data-notex="1" class="slicetext" text-anchor="start" x="0" y="0" style="font-family: 'Open Sans', verdana, arial, sans-serif; font-size: 12px; fill: rgb(68, 68, 68); fill-opacity: 1; white-space: pre;" transform="translate(756.0812765530061,656.6005510905503)scale(0.4903803943233766)">Nacionalidad</text></g></g><g class="slice cursor-pointer"><path class="surface" d="M753.0812765530061,719.2296378180635a5,5 0 0 1 5,-5L792.2466631799551,714.2296378180635a5,5 0 0 1 5,5L797.2466631799551,764a5,5 0 0 1 -5,5L758.0812765530061,769a5,5 0 0 1 -5,-5Z" style="pointer-events: none; stroke-width: 1; fill: rgb(241, 250, 238); fill-opacity: 1; stroke: rgb(255, 255, 255); stroke-opacity: 1; opacity: 1;"/><g class="slicetext"><text data-notex="1" class="slicetext" text-anchor="start" x="0" y="0" style="font-family: 'Open Sans', verdana, arial, sans-serif; font-size: 12px; fill: rgb(68, 68, 68); fill-opacity: 1; white-space: pre;" transform="translate(756.0812765530061,728.2296378180635)">Agua</text></g></g><g class="slice cursor-pointer"><path class="surface" d="M800.2466631799551,653.2063667529932a5,5 0 0 1 5,-5L846.7488877266517,648.2063667529932a5,5 0 0 1 5,5L851.7488877266517,690.1999494104382a5,5 0 0 1 -5,5L805.2466631799551,695.1999494104382a5,5 0 0 1 -5,-5Z" style="pointer-events: none; stroke-width: 1; fill: rgb(241, 250, 238); fill-opacity: 1; stroke: rgb(255, 255, 255); stroke-opacity: 1; opacity: 1;"/><g class="slicetext"><text data-notex="1" class="slicetext" text-anchor="start" x="0" y="0" style="font-family: 'Open Sans', verdana, arial, sans-serif; font-size: 12px; fill: rgb(68, 68, 68); fill-opacity: 1; white-space: pre;" transform="translate(803.2466631799551,656.2415076019203)scale(0.4577400771751931)">Derechos Civiles</text></g></g><g class="slice cursor-pointer"><path class="surface" d="M854.7488877266517,653.2063667529932a5,5 0 0 1 5,-5L874,648.2063667529932a5,5 0 0 1 5,5L879,690.1999494104382a5,5 0 0 1 -5,5L859.7488877266517,695.1999494104382a5,5 0 0 1 -5,-5Z" style="pointer-events: none; stroke-width: 1; fill: rgb(244, 251, 242); fill-opacity: 1; stroke: rgb(255, 255, 255); stroke-opacity: 1; opacity: 1;"/><g class="slicetext"><text data-notex="1" class="slicetext" text-anchor="start" x="0" y="0" style="font-family: 'Open Sans', verdana, arial, sans-serif; font-size: 12px; fill: rgb(68, 68, 68); fill-opacity: 1; white-space: pre;" transform="translate(857.7488877266517,653.259543972622)scale(0.18665247451171188)">Medio Ambiente</text></g></g><g class="slice cursor-pointer"><path class="surface" d="M800.2466631799551,703.1999494104382a5,5 0 0 1 5,-5L821.2559117290033,698.1999494104382a5,5 0 0 1 5,5L826.2559117290033,730.45452245929a5,5 0 0 1 -5,5L805.2466631799551,735.45452245929a5,5 0 0 1 -5,-5Z" style="pointer-events: none; stroke-width: 1; fill: rgb(245, 251, 242); fill-opacity: 1; stroke: rgb(255, 255, 255); stroke-opacity: 1; opacity: 1;"/><g class="slicetext"><text data-notex="1" class="slicetext" text-anchor="start" x="0" y="0" style="font-family: 'Open Sans', verdana, arial, sans-serif; font-size: 12px; fill: rgb(68, 68, 68); fill-opacity: 1; white-space: pre;" transform="translate(803.2466631799551,703.1367720391374)scale(0.17607478442720773)">Orientacion Sexual</text></g></g><g class="slice cursor-pointer"><path class="surface" d="M800.2466631799551,743.45452245929a5,5 0 0 1 5,-5L821.2559117290033,738.45452245929a5,5 0 0 1 5,5L826.2559117290033,764a5,5 0 0 1 -5,5L805.2466631799551,769a5,5 0 0 1 -5,-5Z" style="pointer-events: none; stroke-width: 1; fill: rgb(245, 251, 243); fill-opacity: 1; stroke: rgb(255, 255, 255); stroke-opacity: 1; opacity: 1;"/><g class="slicetext"><text data-notex="1" class="slicetext" text-anchor="start" x="0" y="0" style="font-family: 'Open Sans', verdana, arial, sans-serif; font-size: 12px; fill: rgb(68, 68, 68); fill-opacity: 1; white-space: pre;" transform="translate(803.2466631799551,746.696990259264)scale(0.4765879818158101)">Partido</text></g></g><g class="slice cursor-pointer"><path class="surface" d="M829.2559117290033,703.1999494104382a5,5 0 0 1 5,-5L847.6279558645017,698.1999494104382a5,5 0 0 1 5,5L852.6279558645017,712.3399645873068a5,5 0 0 1 -5,5L834.2559117290033,717.3399645873068a5,5 0 0 1 -5,-5Z" style="pointer-events: none; stroke-width: 1; fill: rgb(246, 252, 244); fill-opacity: 1; stroke: rgb(255, 255, 255); stroke-opacity: 1; opacity: 1;"/><g class="slicetext"><text data-notex="1" class="slicetext" text-anchor="start" x="0" y="0" style="font-family: 'Open Sans', verdana, arial, sans-serif; font-size: 12px; fill: rgb(68, 68, 68); fill-opacity: 1; white-space: pre;" transform="translate(832.2559117290033,706.3689769131394)scale(0.46991159115464853)">Censo</text></g></g><g class="slice cursor-pointer"><path class="surface" d="M855.6279558645017,703.1999494104382a5,5 0 0 1 5,-5L874,698.1999494104382a5,5 0 0 1 5,5L879,712.3399645873068a5,5 0 0 1 -5,5L860.6279558645017,717.3399645873068a5,5 0 0 1 -5,-5Z" style="pointer-events: none; stroke-width: 1; fill: rgb(246, 252, 244); fill-opacity: 1; stroke: rgb(255, 255, 255); stroke-opacity: 1; opacity: 1;"/><g class="slicetext"><text data-notex="1" class="slicetext" text-anchor="start" x="0" y="0" style="font-family: 'Open Sans', verdana, arial, sans-serif; font-size: 12px; fill: rgb(68, 68, 68); fill-opacity: 1; white-space: pre;" transform="translate(858.6279558645017,703.4786747824133)scale(0.20715685199774383)">Estatus Social</text></g></g><g class="slice cursor-pointer"><path class="surface" d="M829.2559117290033,725.3399645873068a5,5 0 0 1 5,-5L843.8605209880019,720.3399645873068a5,5 0 0 1 5,5L848.8605209880019,738.1699822936534a5,5 0 0 1 -5,5L834.2559117290033,743.1699822936534a5,5 0 0 1 -5,-5Z" style="pointer-events: none; stroke-width: 1; fill: rgb(246, 252, 244); fill-opacity: 1; stroke: rgb(255, 255, 255); stroke-opacity: 1; opacity: 1;"/><g class="slicetext"><text data-notex="1" class="slicetext" text-anchor="start" x="0" y="0" style="font-family: 'Open Sans', verdana, arial, sans-serif; font-size: 12px; fill: rgb(68, 68, 68); fill-opacity: 1; white-space: pre;" transform="translate(832.2559117290033,725.2709413853582)scale(0.1755433452774014)">Expropiacion</text></g></g><g class="slice cursor-pointer"><path class="surface" d="M829.2559117290033,751.1699822936534a5,5 0 0 1 5,-5L843.8605209880019,746.1699822936534a5,5 0 0 1 5,5L848.8605209880019,764a5,5 0 0 1 -5,5L834.2559117290033,769a5,5 0 0 1 -5,-5Z" style="pointer-events: none; stroke-width: 1; fill: rgb(246, 252, 244); fill-opacity: 1; stroke: rgb(255, 255, 255); stroke-opacity: 1; opacity: 1;"/><g class="slicetext"><text data-notex="1" class="slicetext" text-anchor="start" x="0" y="0" style="font-family: 'Open Sans', verdana, arial, sans-serif; font-size: 12px; fill: rgb(68, 68, 68); fill-opacity: 1; white-space: pre;" transform="translate(832.2559117290033,751.5266862597792)scale(0.21424581510234028)">Ocupacion</text></g></g><g class="slice cursor-pointer"><path class="surface" d="M851.8605209880019,725.3399645873068a5,5 0 0 1 5,-5L858.930260494001,720.3399645873068a5,5 0 0 1 5,5L863.930260494001,738.1699822936534a5,5 0 0 1 -5,5L856.8605209880019,743.1699822936534a5,5 0 0 1 -5,-5Z" style="pointer-events: none; stroke-width: 1; fill: rgb(247, 252, 244); fill-opacity: 1; stroke: rgb(255, 255, 255); stroke-opacity: 1; opacity: 1;"/><g class="slicetext"><text data-notex="1" class="slicetext" text-anchor="start" x="0" y="0" style="font-family: 'Open Sans', verdana, arial, sans-serif; font-size: 12px; fill: rgb(68, 68, 68); fill-opacity: 1; white-space: pre;" transform="translate(854.8605209880019,724.2489406801005)scale(0.08263419025397639)">Deportacion</text></g></g><g class="slice cursor-pointer"><path class="surface" d="M866.930260494001,725.3399645873068a5,5 0 0 1 5,-5L874,720.3399645873068a5,5 0 0 1 5,5L879,738.1699822936534a5,5 0 0 1 -5,5L871.930260494001,743.1699822936534a5,5 0 0 1 -5,-5Z" style="pointer-events: none; stroke-width: 1; fill: rgb(247, 252, 244); fill-opacity: 1; stroke: rgb(255, 255, 255); stroke-opacity: 1; opacity: 1;"/><g class="slicetext"><text data-notex="1" class="slicetext" text-anchor="start" x="0" y="0" style="font-family: 'Open Sans', verdana, arial, sans-serif; font-size: 12px; fill: rgb(68, 68, 68); fill-opacity: 1; white-space: pre;" transform="translate(869.930260494001,724.3272789616652)scale(0.0897558522144029)">Desempleo</text></g></g><g class="slice cursor-pointer"><path class="surface" d="M851.8605209880019,751.1274867202401a4.957504426586638,4.957504426586638 0 0 1 4.957504426586638,-4.957504426586638L858.9727560674144,746.1699822936534a4.957504426586638,4.957504426586638 0 0 1 4.957504426586638,4.957504426586638L863.930260494001,751.1274867202401a4.957504426586638,4.957504426586638 0 0 1 -4.957504426586638,4.957504426586638L856.8180254145885,756.0849911468267a4.957504426586638,4.957504426586638 0 0 1 -4.957504426586638,-4.957504426586638Z" style="pointer-events: none; stroke-width: 1; fill: rgb(247, 252, 245); fill-opacity: 1; stroke: rgb(255, 255, 255); stroke-opacity: 1; opacity: 1;"/><g class="slicetext"><text data-notex="1" class="slicetext" text-anchor="start" x="0" y="0" style="font-family: 'Open Sans', verdana, arial, sans-serif; font-size: 12px; fill: rgb(68, 68, 68); fill-opacity: 1; white-space: pre;" transform="translate(854.8605209880019,750.0603962574424)scale(0.08094672398081747)">Color de Piel</text></g></g><g class="slice cursor-pointer"><path class="surface" d="M851.8605209880019,764.0424955734134a4.957504426586638,4.957504426586638 0 0 1 4.957504426586638,-4.957504426586638L858.9727560674144,759.0849911468267a4.957504426586638,4.957504426586638 0 0 1 4.957504426586638,4.957504426586638L863.930260494001,764.0424955734134a4.957504426586638,4.957504426586638 0 0 1 -4.957504426586638,4.957504426586638L856.8180254145885,769a4.957504426586638,4.957504426586638 0 0 1 -4.957504426586638,-4.957504426586638Z" style="pointer-events: none; stroke-width: 1; fill: rgb(247, 252, 245); fill-opacity: 1; stroke: rgb(255, 255, 255); stroke-opacity: 1; opacity: 1;"/><g class="slicetext"><text data-notex="1" class="slicetext" text-anchor="start" x="0" y="0" style="font-family: 'Open Sans', verdana, arial, sans-serif; font-size: 12px; fill: rgb(68, 68, 68); fill-opacity: 1; white-space: pre;" transform="translate(854.8605209880019,764.2978842655338)scale(0.2011721017006437)">Edad</text></g></g><g class="slice cursor-pointer"><path class="surface" d="M866.930260494001,751.1274867202401a4.957504426586638,4.957504426586638 0 0 1 4.957504426586638,-4.957504426586638L874.0424955734134,746.1699822936534a4.957504426586638,4.957504426586638 0 0 1 4.957504426586638,4.957504426586638L879,751.1274867202401a4.957504426586638,4.957504426586638 0 0 1 -4.957504426586638,4.957504426586638L871.8877649205876,756.0849911468267a4.957504426586638,4.957504426586638 0 0 1 -4.957504426586638,-4.957504426586638Z" style="pointer-events: none; stroke-width: 1; fill: rgb(247, 252, 245); fill-opacity: 1; stroke: rgb(255, 255, 255); stroke-opacity: 1; opacity: 1;"/><g class="slicetext"><text data-notex="1" class="slicetext" text-anchor="start" x="0" y="0" style="font-family: 'Open Sans', verdana, arial, sans-serif; font-size: 12px; fill: rgb(68, 68, 68); fill-opacity: 1; white-space: pre;" transform="translate(869.930260494001,749.6542956351726)scale(0.04402848559264828)">Libertad De Asociacion</text></g></g><g class="slice cursor-pointer"><path class="surface" d="M866.930260494001,764.0424955734134a4.957504426586638,4.957504426586638 0 0 1 4.957504426586638,-4.957504426586638L874.0424955734134,759.0849911468267a4.957504426586638,4.957504426586638 0 0 1 4.957504426586638,4.957504426586638L879,764.0424955734134a4.957504426586638,4.957504426586638 0 0 1 -4.957504426586638,4.957504426586638L871.8877649205876,769a4.957504426586638,4.957504426586638 0 0 1 -4.957504426586638,-4.957504426586638Z" style="pointer-events: none; stroke-width: 1; fill: rgb(247, 252, 245); fill-opacity: 1; stroke: rgb(255, 255, 255); stroke-opacity: 1; opacity: 1;"/><g class="slicetext"><text data-notex="1" class="slicetext" text-anchor="start" x="0" y="0" style="font-family: 'Open Sans', verdana, arial, sans-serif; font-size: 12px; fill: rgb(68, 68, 68); fill-opacity: 1; white-space: pre;" transform="translate(869.930260494001,763.6986983266694)scale(0.14670065271296667)">Marital</text></g></g></g></g><g class="sunburstlayer"/><g class="glimages"/><defs id="topdefs-809b75"><g class="clips"/></defs><g class="layer-above"><g class="imagelayer"/><g class="shapelayer"/></g><g class="infolayer"><g class="cbcoloraxis colorbar" transform="translate(25,50)"><rect class="cbbg" x="877" y="0" width="85.75" height="725" style="fill: rgb(0, 0, 0); fill-opacity: 0; stroke: rgb(68, 68, 68); stroke-opacity: 1; stroke-width: 0;"/><g class="cbfills" transform="translate(0,31)"><rect class="cbfill gradient_filled" x="887" y="0" width="30" height="684" style="fill: url('#g809b75-cbcoloraxis');"/></g><g class="cblines" transform="translate(0,31)"/><g class="cbaxis crisp" transform="translate(0,-50)"><g class="ycbcoloraxistick"><text text-anchor="start" x="919.9" y="4.199999999999999" transform="translate(0,653.65)" style="font-family: 'Open Sans', verdana, arial, sans-serif; font-size: 12px; fill: rgb(42, 63, 95); fill-opacity: 1; white-space: pre; opacity: 1;">50</text></g><g class="ycbcoloraxistick"><text text-anchor="start" x="919.9" y="4.199999999999999" style="font-family: 'Open Sans', verdana, arial, sans-serif; font-size: 12px; fill: rgb(42, 63, 95); fill-opacity: 1; white-space: pre; opacity: 1;" transform="translate(0,540.03)">100</text></g><g class="ycbcoloraxistick"><text text-anchor="start" x="919.9" y="4.199999999999999" style="font-family: 'Open Sans', verdana, arial, sans-serif; font-size: 12px; fill: rgb(42, 63, 95); fill-opacity: 1; white-space: pre; opacity: 1;" transform="translate(0,426.41)">150</text></g><g class="ycbcoloraxistick"><text text-anchor="start" x="919.9" y="4.199999999999999" style="font-family: 'Open Sans', verdana, arial, sans-serif; font-size: 12px; fill: rgb(42, 63, 95); fill-opacity: 1; white-space: pre; opacity: 1;" transform="translate(0,312.79)">200</text></g><g class="ycbcoloraxistick"><text text-anchor="start" x="919.9" y="4.199999999999999" style="font-family: 'Open Sans', verdana, arial, sans-serif; font-size: 12px; fill: rgb(42, 63, 95); fill-opacity: 1; white-space: pre; opacity: 1;" transform="translate(0,199.17000000000002)">250</text></g><g class="ycbcoloraxistick"><text text-anchor="start" x="919.9" y="4.199999999999999" style="font-family: 'Open Sans', verdana, arial, sans-serif; font-size: 12px; fill: rgb(42, 63, 95); fill-opacity: 1; white-space: pre; opacity: 1;" transform="translate(0,85.54000000000002)">300</text></g></g><g class="cbtitleunshift" transform="translate(-25,-50)"><g class="cbtitle" transform=""><text class="ycbcoloraxistitle" x="912.2" y="73.5" text-anchor="start" style="font-family: 'Open Sans', verdana, arial, sans-serif; font-size: 14px; fill: rgb(42, 63, 95); opacity: 1; font-weight: normal; white-space: pre;">discursos</text></g></g><rect class="cboutline" x="887" y="31" width="30" height="684" style="stroke: rgb(68, 68, 68); stroke-opacity: 1; fill: none; stroke-width: 0;"/></g><g class="g-gtitle"/></g></svg>