<svg class="main-svg" xmlns="http://www.w3.org/2000/svg" xmlns:xlink="http://www.w3.org/1999/xlink" width="1000" height="800" style="" viewBox="0 0 1000 800"><rect x="0" y="0" width="1000" height="800" style="fill: rgb(255, 255, 255); fill-opacity: 1;"/><defs id="defs-72bdd3"><g class="clips"/><g class="gradients"/><g class="patterns"/></defs><g class="bglayer"/><g class="layer-below"><g class="imagelayer"/><g class="shapelayer"/></g><g class="cartesianlayer"/><g class="polarlayer"/><g class="smithlayer"/><g class="ternarylayer"/><g class="geolayer"/><g class="funnelarealayer"/><g class="pielayer"/><g class="iciclelayer"/><g class="treemaplayer"><g class="trace treemap" style="opacity: 1;"><g class="slice cursor-pointer"><path class="surface" d="M25,55a5,5 0 0 1 5,-5L970,50a5,5 0 0 1 5,5L975,770a5,5 0 0 1 -5,5L30,775a5,5 0 0 1 -5,-5Z" style="pointer-events: none; fill: rgb(68, 68, 68); fill-opacity: 1; stroke-width: 1; stroke: rgb(255, 255, 255); stroke-opacity: 1; opacity: 1;"/><g class="slicetext"><text data-notex="1" class="slicetext" text-anchor="start" x="0" y="0" style="font-family: 'Open Sans', verdana, arial, sans-serif; font-size: 12px; fill: rgb(255, 255, 255); fill-opacity: 1; white-space: pre;" transform="translate(32,64)">Topico</text></g></g><g class="slice cursor-pointer"><path class="surface" d="M31,79a5,5 0 0 1 5,-5L194.81999533636468,74a5,5 0 0 1 5,5L199.81999533636468,260.1439243981866a5,5 0 0 1 -5,5L36,265.1439243981866a5,5 0 0 1 -5,-5Z" style="pointer-events: none; stroke-width: 1; fill: rgb(13, 88, 95); fill-opacity: 1; stroke: rgb(255, 255, 255); stroke-opacity: 1; opacity: 1;"/><g class="slicetext"><text data-notex="1" class="slicetext" text-anchor="start" x="0" y="0" style="font-family: 'Open Sans', verdana, arial, sans-serif; font-size: 12px; fill: rgb(255, 255, 255); fill-opacity: 1; white-space: pre;" transform="translate(34,88)"><tspan class="line" dy="0em" x="0" y="0">Estado</tspan><tspan class="line" dy="1.3em" x="0" y="0">4356</tspan></text></g></g><g class="slice cursor-pointer"><path class="surface" d="M31,273.1439243981866a5,5 0 0 1 5,-5L194.81999533636468,268.1439243981866a5,5 0 0 1 5,5L199.81999533636468,432.4934550794968a5,5 0 0 1 -5,5L36,437.4934550794968a5,5 0 0 1 -5,-5Z" style="pointer-events: none; stroke-width: 1; fill: rgb(31, 106, 109); fill-opacity: 1; stroke: rgb(255, 255, 255); stroke-opacity: 1; opacity: 1;"/><g class="slicetext"><text data-notex="1" class="slicetext" text-anchor="start" x="0" y="0" style="font-family: 'Open Sans', verdana, arial, sans-serif; font-size: 12px; fill: rgb(255, 255, 255); fill-opacity: 1; white-space: pre;" transform="translate(34,282.1439243981866)"><tspan class="line" dy="0em" x="0" y="0">Economia</tspan><tspan class="line" dy="1.3em" x="0" y="0">3867</tspan></text></g></g><g class="slice cursor-pointer"><path class="surface" d="M31,445.4934550794968a5,5 0 0 1 5,-5L194.81999533636468,440.4934550794968a5,5 0 0 1 5,5L199.81999533636468,600.475193154971a5,5 0 0 1 -5,5L36,605.475193154971a5,5 0 0 1 -5,-5Z" style="pointer-events: none; stroke-width: 1; fill: rgb(35, 109, 112); fill-opacity: 1; stroke: rgb(255, 255, 255); stroke-opacity: 1; opacity: 1;"/><g class="slicetext"><text data-notex="1" class="slicetext" text-anchor="start" x="0" y="0" style="font-family: 'Open Sans', verdana, arial, sans-serif; font-size: 12px; fill: rgb(255, 255, 255); fill-opacity: 1; white-space: pre;" transform="translate(34,454.4934550794968)"><tspan class="line" dy="0em" x="0" y="0">Cultura</tspan><tspan class="line" dy="1.3em" x="0" y="0">3769</tspan></text></g></g><g class="slice cursor-pointer"><path class="surface" d="M31,613.475193154971a5,5 0 0 1 5,-5L194.81999533636468,608.475193154971a5,5 0 0 1 5,5L199.81999533636468,764a5,5 0 0 1 -5,5L36,769a5,5 0 0 1 -5,-5Z" style="pointer-events: none; stroke-width: 1; fill: rgb(39, 113, 115); fill-opacity: 1; stroke: rgb(255, 255, 255); stroke-opacity: 1; opacity: 1;"/><g class="slicetext"><text data-notex="1" class="slicetext" text-anchor="start" x="0" y="0" style="font-family: 'Open Sans', verdana, arial, sans-serif; font-size: 12px; fill: rgb(255, 255, 255); fill-opacity: 1; white-space: pre;" transform="translate(34,622.475193154971)"><tspan class="line" dy="0em" x="0" y="0">Derechos Fundamentales</tspan><tspan class="line" dy="1.3em" x="0" y="0">3669</tspan></text></g></g><g class="slice cursor-pointer"><path class="surface" d="M202.81999533636468,79a5,5 0 0 1 5,-5L336.3704442112627,74a5,5 0 0 1 5,5L341.3704442112627,242.9074562083398a5,5 0 0 1 -5,5L207.81999533636468,247.9074562083398a5,5 0 0 1 -5,-5Z" style="pointer-events: none; stroke-width: 1; fill: rgb(54, 127, 127); fill-opacity: 1; stroke: rgb(255, 255, 255); stroke-opacity: 1; opacity: 1;"/><g class="slicetext"><text data-notex="1" class="slicetext" text-anchor="start" x="0" y="0" style="font-family: 'Open Sans', verdana, arial, sans-serif; font-size: 12px; fill: rgb(255, 255, 255); fill-opacity: 1; white-space: pre;" transform="translate(205.81999533636468,88)"><tspan class="line" dy="0em" x="0" y="0">Ejecutivo</tspan><tspan class="line" dy="1.3em" x="0" y="0">3270</tspan></text></g></g><g class="slice cursor-pointer"><path class="surface" d="M202.81999533636468,255.9074562083398a5,5 0 0 1 5,-5L336.3704442112627,250.9074562083398a5,5 0 0 1 5,5L341.3704442112627,419.8149124166796a5,5 0 0 1 -5,5L207.81999533636468,424.8149124166796a5,5 0 0 1 -5,-5Z" style="pointer-events: none; stroke-width: 1; fill: rgb(54, 127, 127); fill-opacity: 1; stroke: rgb(255, 255, 255); stroke-opacity: 1; opacity: 1;"/><g class="slicetext"><text data-notex="1" class="slicetext" text-anchor="start" x="0" y="0" style="font-family: 'Open Sans', verdana, arial, sans-serif; font-size: 12px; fill: rgb(255, 255, 255); fill-opacity: 1; white-space: pre;" transform="translate(206.81999533636468,264.9074562083398)"><tspan class="line" dy="0em" x="0" y="0">Judicial</tspan><tspan class="line" dy="1.3em" x="0" y="0">3270</tspan></text></g></g><g class="slice cursor-pointer"><path class="surface" d="M202.81999533636468,432.8149124166796a5,5 0 0 1 5,-5L336.3704442112627,427.8149124166796a5,5 0 0 1 5,5L341.3704442112627,596.7223686250194a5,5 0 0 1 -5,5L207.81999533636468,601.7223686250194a5,5 0 0 1 -5,-5Z" style="pointer-events: none; stroke-width: 1; fill: rgb(54, 127, 127); fill-opacity: 1; stroke: rgb(255, 255, 255); stroke-opacity: 1; opacity: 1;"/><g class="slicetext"><text data-notex="1" class="slicetext" text-anchor="start" x="0" y="0" style="font-family: 'Open Sans', verdana, arial, sans-serif; font-size: 12px; fill: rgb(255, 255, 255); fill-opacity: 1; white-space: pre;" transform="translate(205.81999533636468,441.8149124166796)"><tspan class="line" dy="0em" x="0" y="0">Legislativo</tspan><tspan class="line" dy="1.3em" x="0" y="0">3270</tspan></text></g></g><g class="slice cursor-pointer"><path class="surface" d="M202.81999533636468,609.7223686250194a5,5 0 0 1 5,-5L336.3704442112627,604.7223686250194a5,5 0 0 1 5,5L341.3704442112627,764a5,5 0 0 1 -5,5L207.81999533636468,769a5,5 0 0 1 -5,-5Z" style="pointer-events: none; stroke-width: 1; fill: rgb(61, 134, 133); fill-opacity: 1; stroke: rgb(255, 255, 255); stroke-opacity: 1; opacity: 1;"/><g class="slicetext"><text data-notex="1" class="slicetext" text-anchor="start" x="0" y="0" style="font-family: 'Open Sans', verdana, arial, sans-serif; font-size: 12px; fill: rgb(255, 255, 255); fill-opacity: 1; white-space: pre;" transform="translate(205.81999533636468,618.7223686250194)"><tspan class="line" dy="0em" x="0" y="0">Derechos Civiles</tspan><tspan class="line" dy="1.3em" x="0" y="0">3092</tspan></text></g></g><g class="slice cursor-pointer"><path class="surface" d="M344.3704442112627,79a5,5 0 0 1 5,-5L494.3693404880575,74a5,5 0 0 1 5,5L499.3693404880575,215.08773401856416a5,5 0 0 1 -5,5L349.3704442112627,220.08773401856416a5,5 0 0 1 -5,-5Z" style="pointer-events: none; stroke-width: 1; fill: rgb(62, 134, 133); fill-opacity: 1; stroke: rgb(255, 255, 255); stroke-opacity: 1; opacity: 1;"/><g class="slicetext"><text data-notex="1" class="slicetext" text-anchor="start" x="0" y="0" style="font-family: 'Open Sans', verdana, arial, sans-serif; font-size: 12px; fill: rgb(255, 255, 255); fill-opacity: 1; white-space: pre;" transform="translate(347.3704442112627,88)"><tspan class="line" dy="0em" x="0" y="0">Eleccion</tspan><tspan class="line" dy="1.3em" x="0" y="0">3076</tspan></text></g></g><g class="slice cursor-pointer"><path class="surface" d="M502.3693404880575,79a5,5 0 0 1 5,-5L652.3168717140471,74a5,5 0 0 1 5,5L657.3168717140471,215.08773401856416a5,5 0 0 1 -5,5L507.3693404880575,220.08773401856416a5,5 0 0 1 -5,-5Z" style="pointer-events: none; stroke-width: 1; fill: rgb(62, 134, 133); fill-opacity: 1; stroke: rgb(255, 255, 255); stroke-opacity: 1; opacity: 1;"/><g class="slicetext"><text data-notex="1" class="slicetext" text-anchor="start" x="0" y="0" style="font-family: 'Open Sans', verdana, arial, sans-serif; font-size: 12px; fill: rgb(255, 255, 255); fill-opacity: 1; white-space: pre;" transform="translate(505.3693404880575,88)"><tspan class="line" dy="0em" x="0" y="0">FFAA</tspan><tspan class="line" dy="1.3em" x="0" y="0">3075</tspan></text></g></g><g class="slice cursor-pointer"><path class="surface" d="M660.3168717140471,79a5,5 0 0 1 5,-5L809.3398320255432,74a5,5 0 0 1 5,5L814.3398320255432,215.08773401856416a5,5 0 0 1 -5,5L665.3168717140471,220.08773401856416a5,5 0 0 1 -5,-5Z" style="pointer-events: none; stroke-width: 1; fill: rgb(63, 135, 134); fill-opacity: 1; stroke: rgb(255, 255, 255); stroke-opacity: 1; opacity: 1;"/><g class="slicetext"><text data-notex="1" class="slicetext" text-anchor="start" x="0" y="0" style="font-family: 'Open Sans', verdana, arial, sans-serif; font-size: 12px; fill: rgb(255, 255, 255); fill-opacity: 1; white-space: pre;" transform="translate(663.3168717140471,88)"><tspan class="line" dy="0em" x="0" y="0">Religion</tspan><tspan class="line" dy="1.3em" x="0" y="0">3057</tspan></text></g></g><g class="slice cursor-pointer"><path class="surface" d="M817.3398320255432,79a5,5 0 0 1 5,-5L964,74a5,5 0 0 1 5,5L969,215.08773401856416a5,5 0 0 1 -5,5L822.3398320255432,220.08773401856416a5,5 0 0 1 -5,-5Z" style="pointer-events: none; stroke-width: 1; fill: rgb(64, 137, 135); fill-opacity: 1; stroke: rgb(255, 255, 255); stroke-opacity: 1; opacity: 1;"/><g class="slicetext"><text data-notex="1" class="slicetext" text-anchor="start" x="0" y="0" style="font-family: 'Open Sans', verdana, arial, sans-serif; font-size: 12px; fill: rgb(255, 255, 255); fill-opacity: 1; white-space: pre;" transform="translate(820.3398320255432,88)"><tspan class="line" dy="0em" x="0" y="0">Reforma</tspan><tspan class="line" dy="1.3em" x="0" y="0">3011</tspan></text></g></g><g class="slice cursor-pointer"><path class="surface" d="M344.3704442112627,228.08773401856416a5,5 0 0 1 5,-5L495.9703846003254,223.08773401856416a5,5 0 0 1 5,5L500.9703846003254,359.56105857014666a5,5 0 0 1 -5,5L349.3704442112627,364.56105857014666a5,5 0 0 1 -5,-5Z" style="pointer-events: none; stroke-width: 1; fill: rgb(64, 137, 135); fill-opacity: 1; stroke: rgb(255, 255, 255); stroke-opacity: 1; opacity: 1;"/><g class="slicetext"><text data-notex="1" class="slicetext" text-anchor="start" x="0" y="0" style="font-family: 'Open Sans', verdana, arial, sans-serif; font-size: 12px; fill: rgb(255, 255, 255); fill-opacity: 1; white-space: pre;" transform="translate(347.3704442112627,237.08773401856416)"><tspan class="line" dy="0em" x="0" y="0">Reformas y Constitucion</tspan><tspan class="line" dy="1.3em" x="0" y="0">3011</tspan></text></g></g><g class="slice cursor-pointer"><path class="surface" d="M344.3704442112627,372.56105857014666a5,5 0 0 1 5,-5L495.9703846003254,367.56105857014666a5,5 0 0 1 5,5L500.9703846003254,499.1882171371028a5,5 0 0 1 -5,5L349.3704442112627,504.1882171371028a5,5 0 0 1 -5,-5Z" style="pointer-events: none; stroke-width: 1; fill: rgb(68, 140, 138); fill-opacity: 1; stroke: rgb(255, 255, 255); stroke-opacity: 1; opacity: 1;"/><g class="slicetext"><text data-notex="1" class="slicetext" text-anchor="start" x="0" y="0" style="font-family: 'Open Sans', verdana, arial, sans-serif; font-size: 12px; fill: rgb(255, 255, 255); fill-opacity: 1; white-space: pre;" transform="translate(347.3704442112627,381.56105857014666)"><tspan class="line" dy="0em" x="0" y="0">Voto</tspan><tspan class="line" dy="1.3em" x="0" y="0">2910</tspan></text></g></g><g class="slice cursor-pointer"><path class="surface" d="M344.3704442112627,512.1882171371028a5,5 0 0 1 5,-5L495.9703846003254,507.1882171371028a5,5 0 0 1 5,5L500.9703846003254,636.0324289010063a5,5 0 0 1 -5,5L349.3704442112627,641.0324289010063a5,5 0 0 1 -5,-5Z" style="pointer-events: none; stroke-width: 1; fill: rgb(71, 142, 140); fill-opacity: 1; stroke: rgb(255, 255, 255); stroke-opacity: 1; opacity: 1;"/><g class="slicetext"><text data-notex="1" class="slicetext" text-anchor="start" x="0" y="0" style="font-family: 'Open Sans', verdana, arial, sans-serif; font-size: 12px; fill: rgb(255, 255, 255); fill-opacity: 1; white-space: pre;" transform="translate(347.3704442112627,521.1882171371028)"><tspan class="line" dy="0em" x="0" y="0">Derecho Internacional</tspan><tspan class="line" dy="1.3em" x="0" y="0">2852</tspan></text></g></g><g class="slice cursor-pointer"><path class="surface" d="M344.3704442112627,649.0324289010063a5,5 0 0 1 5,-5L495.9703846003254,644.0324289010063a5,5 0 0 1 5,5L500.9703846003254,764.0000000000001a5,5 0 0 1 -5,5L349.3704442112627,769.0000000000001a5,5 0 0 1 -5,-5Z" style="pointer-events: none; stroke-width: 1; fill: rgb(79, 149, 146); fill-opacity: 1; stroke: rgb(255, 255, 255); stroke-opacity: 1; opacity: 1;"/><g class="slicetext"><text data-notex="1" class="slicetext" text-anchor="start" x="0" y="0" style="font-family: 'Open Sans', verdana, arial, sans-serif; font-size: 12px; fill: rgb(255, 255, 255); fill-opacity: 1; white-space: pre;" transform="translate(347.3704442112627,658.0324289010063)"><tspan class="line" dy="0em" x="0" y="0">Expropiacion</tspan><tspan class="line" dy="1.3em" x="0" y="0">2667</tspan></text></g></g><g class="slice cursor-pointer"><path class="surface" d="M503.9703846003254,228.08773401856416a5,5 0 0 1 5,-5L654.685985355359,223.08773401856416a5,5 0 0 1 5,5L659.685985355359,339.6188910587665a5,5 0 0 1 -5,5L508.9703846003254,344.6188910587665a5,5 0 0 1 -5,-5Z" style="pointer-events: none; stroke-width: 1; fill: rgb(82, 152, 148); fill-opacity: 1; stroke: rgb(255, 255, 255); stroke-opacity: 1; opacity: 1;"/><g class="slicetext"><text data-notex="1" class="slicetext" text-anchor="start" x="0" y="0" style="font-family: 'Open Sans', verdana, arial, sans-serif; font-size: 12px; fill: rgb(68, 68, 68); fill-opacity: 1; white-space: pre;" transform="translate(506.9703846003254,237.08773401856416)"><tspan class="line" dy="0em" x="0" y="0">Derechos Sociales</tspan><tspan class="line" dy="1.3em" x="0" y="0">2581</tspan></text></g></g><g class="slice cursor-pointer"><path class="surface" d="M662.685985355359,228.08773401856416a5,5 0 0 1 5,-5L810.6958571552505,223.08773401856416a5,5 0 0 1 5,5L815.6958571552505,339.6188910587665a5,5 0 0 1 -5,5L667.685985355359,344.6188910587665a5,5 0 0 1 -5,-5Z" style="pointer-events: none; stroke-width: 1; fill: rgb(84, 154, 150); fill-opacity: 1; stroke: rgb(255, 255, 255); stroke-opacity: 1; opacity: 1;"/><g class="slicetext"><text data-notex="1" class="slicetext" text-anchor="start" x="0" y="0" style="font-family: 'Open Sans', verdana, arial, sans-serif; font-size: 12px; fill: rgb(68, 68, 68); fill-opacity: 1; white-space: pre;" transform="translate(665.685985355359,237.08773401856416)"><tspan class="line" dy="0em" x="0" y="0">Propiedad</tspan><tspan class="line" dy="1.3em" x="0" y="0">2537</tspan></text></g></g><g class="slice cursor-pointer"><path class="surface" d="M818.6958571552505,228.08773401856416a5,5 0 0 1 5,-5L964,223.08773401856416a5,5 0 0 1 5,5L969,339.6188910587665a5,5 0 0 1 -5,5L823.6958571552505,344.6188910587665a5,5 0 0 1 -5,-5Z" style="pointer-events: none; stroke-width: 1; fill: rgb(86, 155, 151); fill-opacity: 1; stroke: rgb(255, 255, 255); stroke-opacity: 1; opacity: 1;"/><g class="slicetext"><text data-notex="1" class="slicetext" text-anchor="start" x="0" y="0" style="font-family: 'Open Sans', verdana, arial, sans-serif; font-size: 12px; fill: rgb(68, 68, 68); fill-opacity: 1; white-space: pre;" transform="translate(821.6958571552505,237.08773401856416)"><tspan class="line" dy="0em" x="0" y="0">Libertad De Asociacion</tspan><tspan class="line" dy="1.3em" x="0" y="0">2493</tspan></text></g></g><g class="slice cursor-pointer"><path class="surface" d="M503.9703846003254,352.6188910587665a5,5 0 0 1 5,-5L632.8767612837248,347.6188910587665a5,5 0 0 1 5,5L637.8767612837248,450.5945230792499a5,5 0 0 1 -5,5L508.9703846003254,455.5945230792499a5,5 0 0 1 -5,-5Z" style="pointer-events: none; stroke-width: 1; fill: rgb(110, 174, 167); fill-opacity: 1; stroke: rgb(255, 255, 255); stroke-opacity: 1; opacity: 1;"/><g class="slicetext"><text data-notex="1" class="slicetext" text-anchor="start" x="0" y="0" style="font-family: 'Open Sans', verdana, arial, sans-serif; font-size: 12px; fill: rgb(68, 68, 68); fill-opacity: 1; white-space: pre;" transform="translate(507.9703846003254,361.6188910587665)"><tspan class="line" dy="0em" x="0" y="0">Trabajo</tspan><tspan class="line" dy="1.3em" x="0" y="0">1984</tspan></text></g></g><g class="slice cursor-pointer"><path class="surface" d="M503.9703846003254,463.5945230792499a5,5 0 0 1 5,-5L632.8767612837248,458.5945230792499a5,5 0 0 1 5,5L637.8767612837248,558.7733901798622a5,5 0 0 1 -5,5L508.9703846003254,563.7733901798622a5,5 0 0 1 -5,-5Z" style="pointer-events: none; stroke-width: 1; fill: rgb(113, 176, 168); fill-opacity: 1; stroke: rgb(255, 255, 255); stroke-opacity: 1; opacity: 1;"/><g class="slicetext"><text data-notex="1" class="slicetext" text-anchor="start" x="0" y="0" style="font-family: 'Open Sans', verdana, arial, sans-serif; font-size: 12px; fill: rgb(68, 68, 68); fill-opacity: 1; white-space: pre;" transform="translate(506.9703846003254,472.5945230792499)"><tspan class="line" dy="0em" x="0" y="0">Educacion</tspan><tspan class="line" dy="1.3em" x="0" y="0">1934</tspan></text></g></g><g class="slice cursor-pointer"><path class="surface" d="M503.9703846003254,571.7733901798622a5,5 0 0 1 5,-5L632.8767612837248,566.7733901798622a5,5 0 0 1 5,5L637.8767612837248,661.974015723104a5,5 0 0 1 -5,5L508.9703846003254,666.974015723104a5,5 0 0 1 -5,-5Z" style="pointer-events: none; stroke-width: 1; fill: rgb(118, 179, 171); fill-opacity: 1; stroke: rgb(255, 255, 255); stroke-opacity: 1; opacity: 1;"/><g class="slicetext"><text data-notex="1" class="slicetext" text-anchor="start" x="0" y="0" style="font-family: 'Open Sans', verdana, arial, sans-serif; font-size: 12px; fill: rgb(68, 68, 68); fill-opacity: 1; white-space: pre;" transform="translate(506.9703846003254,580.7733901798622)"><tspan class="line" dy="0em" x="0" y="0">Igualdad</tspan><tspan class="line" dy="1.3em" x="0" y="0">1845</tspan></text></g></g><g class="slice cursor-pointer"><path class="surface" d="M503.9703846003254,674.974015723104a5,5 0 0 1 5,-5L632.8767612837248,669.974015723104a5,5 0 0 1 5,5L637.8767612837248,764a5,5 0 0 1 -5,5L508.9703846003254,769a5,5 0 0 1 -5,-5Z" style="pointer-events: none; stroke-width: 1; fill: rgb(119, 179, 171); fill-opacity: 1; stroke: rgb(255, 255, 255); stroke-opacity: 1; opacity: 1;"/><g class="slicetext"><text data-notex="1" class="slicetext" text-anchor="start" x="0" y="0" style="font-family: 'Open Sans', verdana, arial, sans-serif; font-size: 12px; fill: rgb(68, 68, 68); fill-opacity: 1; white-space: pre;" transform="translate(506.9703846003254,683.974015723104)"><tspan class="line" dy="0em" x="0" y="0">Nacionalidad</tspan><tspan class="line" dy="1.3em" x="0" y="0">1824</tspan></text></g></g><g class="slice cursor-pointer"><path class="surface" d="M640.8767612837248,352.6188910587665a5,5 0 0 1 5,-5L748.9136342040297,347.6188910587665a5,5 0 0 1 5,5L753.9136342040297,456.8267090486396a5,5 0 0 1 -5,5L645.8767612837248,461.8267090486396a5,5 0 0 1 -5,-5Z" style="pointer-events: none; stroke-width: 1; fill: rgb(121, 181, 173); fill-opacity: 1; stroke: rgb(255, 255, 255); stroke-opacity: 1; opacity: 1;"/><g class="slicetext"><text data-notex="1" class="slicetext" text-anchor="start" x="0" y="0" style="font-family: 'Open Sans', verdana, arial, sans-serif; font-size: 12px; fill: rgb(68, 68, 68); fill-opacity: 1; white-space: pre;" transform="translate(643.8767612837248,361.6188910587665)"><tspan class="line" dy="0em" x="0" y="0">Simbolos</tspan><tspan class="line" dy="1.3em" x="0" y="0">1776</tspan></text></g></g><g class="slice cursor-pointer"><path class="surface" d="M756.9136342040297,352.6188910587665a5,5 0 0 1 5,-5L862.5984083489229,347.6188910587665a5,5 0 0 1 5,5L867.5984083489229,456.8267090486396a5,5 0 0 1 -5,5L761.9136342040297,461.8267090486396a5,5 0 0 1 -5,-5Z" style="pointer-events: none; stroke-width: 1; fill: rgb(123, 183, 174); fill-opacity: 1; stroke: rgb(255, 255, 255); stroke-opacity: 1; opacity: 1;"/><g class="slicetext"><text data-notex="1" class="slicetext" text-anchor="start" x="0" y="0" style="font-family: 'Open Sans', verdana, arial, sans-serif; font-size: 12px; fill: rgb(68, 68, 68); fill-opacity: 1; white-space: pre;" transform="translate(759.9136342040297,361.6188910587665)"><tspan class="line" dy="0em" x="0" y="0">Ciencia</tspan><tspan class="line" dy="1.3em" x="0" y="0">1740</tspan></text></g></g><g class="slice cursor-pointer"><path class="surface" d="M870.5984083489229,352.6188910587665a5,5 0 0 1 5,-5L964.0000000000001,347.6188910587665a5,5 0 0 1 5,5L969.0000000000001,456.8267090486396a5,5 0 0 1 -5,5L875.5984083489229,461.8267090486396a5,5 0 0 1 -5,-5Z" style="pointer-events: none; stroke-width: 1; fill: rgb(133, 189, 180); fill-opacity: 1; stroke: rgb(255, 255, 255); stroke-opacity: 1; opacity: 1;"/><g class="slicetext"><text data-notex="1" class="slicetext" text-anchor="start" x="0" y="0" style="font-family: 'Open Sans', verdana, arial, sans-serif; font-size: 12px; fill: rgb(68, 68, 68); fill-opacity: 1; white-space: pre;" transform="translate(873.5984083489229,361.6188910587665)"><tspan class="line" dy="0em" x="0" y="0">Censura</tspan><tspan class="line" dy="1.3em" x="0" y="0">1552</tspan></text></g></g><g class="slice cursor-pointer"><path class="surface" d="M640.8767612837248,469.8267090486396a5,5 0 0 1 5,-5L748.0294671736868,464.8267090486396a5,5 0 0 1 5,5L753.0294671736868,560.0379988422121a5,5 0 0 1 -5,5L645.8767612837248,565.0379988422121a5,5 0 0 1 -5,-5Z" style="pointer-events: none; stroke-width: 1; fill: rgb(133, 189, 180); fill-opacity: 1; stroke: rgb(255, 255, 255); stroke-opacity: 1; opacity: 1;"/><g class="slicetext"><text data-notex="1" class="slicetext" text-anchor="start" x="0" y="0" style="font-family: 'Open Sans', verdana, arial, sans-serif; font-size: 12px; fill: rgb(68, 68, 68); fill-opacity: 1; white-space: pre;" transform="translate(643.8767612837248,478.8267090486396)"><tspan class="line" dy="0em" x="0" y="0">Comunicacion</tspan><tspan class="line" dy="1.3em" x="0" y="0">1552</tspan></text></g></g><g class="slice cursor-pointer"><path class="surface" d="M640.8767612837248,573.0379988422121a5,5 0 0 1 5,-5L748.0294671736868,568.0379988422121a5,5 0 0 1 5,5L753.0294671736868,663.2492886357846a5,5 0 0 1 -5,5L645.8767612837248,668.2492886357846a5,5 0 0 1 -5,-5Z" style="pointer-events: none; stroke-width: 1; fill: rgb(133, 189, 180); fill-opacity: 1; stroke: rgb(255, 255, 255); stroke-opacity: 1; opacity: 1;"/><g class="slicetext"><text data-notex="1" class="slicetext" text-anchor="start" x="0" y="0" style="font-family: 'Open Sans', verdana, arial, sans-serif; font-size: 12px; fill: rgb(68, 68, 68); fill-opacity: 1; white-space: pre;" transform="translate(643.8767612837248,578.8379680465262)scale(0.7090881094830987)"><tspan class="line" dy="0em" x="0" y="0">Medios de Comunicacion</tspan><tspan class="line" dy="1.3em" x="0" y="0">1552</tspan></text></g></g><g class="slice cursor-pointer"><path class="surface" d="M640.8767612837248,676.2492886357846a5,5 0 0 1 5,-5L748.0294671736868,671.2492886357846a5,5 0 0 1 5,5L753.0294671736868,764a5,5 0 0 1 -5,5L645.8767612837248,769a5,5 0 0 1 -5,-5Z" style="pointer-events: none; stroke-width: 1; fill: rgb(135, 191, 181); fill-opacity: 1; stroke: rgb(255, 255, 255); stroke-opacity: 1; opacity: 1;"/><g class="slicetext"><text data-notex="1" class="slicetext" text-anchor="start" x="0" y="0" style="font-family: 'Open Sans', verdana, arial, sans-serif; font-size: 12px; fill: rgb(68, 68, 68); fill-opacity: 1; white-space: pre;" transform="translate(643.8767612837248,685.2492886357846)"><tspan class="line" dy="0em" x="0" y="0">Medio Ambiente</tspan><tspan class="line" dy="1.3em" x="0" y="0">1515</tspan></text></g></g><g class="slice cursor-pointer"><path class="surface" d="M756.0294671736868,469.8267090486396a5,5 0 0 1 5,-5L871.3680890010363,464.8267090486396a5,5 0 0 1 5,5L876.3680890010363,546.6065512151921a5,5 0 0 1 -5,5L761.0294671736868,551.6065512151921a5,5 0 0 1 -5,-5Z" style="pointer-events: none; stroke-width: 1; fill: rgb(139, 193, 183); fill-opacity: 1; stroke: rgb(255, 255, 255); stroke-opacity: 1; opacity: 1;"/><g class="slicetext"><text data-notex="1" class="slicetext" text-anchor="start" x="0" y="0" style="font-family: 'Open Sans', verdana, arial, sans-serif; font-size: 12px; fill: rgb(68, 68, 68); fill-opacity: 1; white-space: pre;" transform="translate(759.0294671736868,478.8267090486396)"><tspan class="line" dy="0em" x="0" y="0">Ocupacion</tspan><tspan class="line" dy="1.3em" x="0" y="0">1446</tspan></text></g></g><g class="slice cursor-pointer"><path class="surface" d="M879.3680890010363,469.8267090486396a5,5 0 0 1 5,-5L964,464.8267090486396a5,5 0 0 1 5,5L969,546.6065512151921a5,5 0 0 1 -5,5L884.3680890010363,551.6065512151921a5,5 0 0 1 -5,-5Z" style="pointer-events: none; stroke-width: 1; fill: rgb(160, 206, 194); fill-opacity: 1; stroke: rgb(255, 255, 255); stroke-opacity: 1; opacity: 1;"/><g class="slicetext"><text data-notex="1" class="slicetext" text-anchor="start" x="0" y="0" style="font-family: 'Open Sans', verdana, arial, sans-serif; font-size: 12px; fill: rgb(68, 68, 68); fill-opacity: 1; white-space: pre;" transform="translate(883.3680890010363,478.8267090486396)"><tspan class="line" dy="0em" x="0" y="0">Territorio</tspan><tspan class="line" dy="1.3em" x="0" y="0">1086</tspan></text></g></g><g class="slice cursor-pointer"><path class="surface" d="M756.0294671736868,559.6065512151921a5,5 0 0 1 5,-5L829.1439812468254,554.6065512151921a5,5 0 0 1 5,5L834.1439812468254,638.0883809109683a5,5 0 0 1 -5,5L761.0294671736868,643.0883809109683a5,5 0 0 1 -5,-5Z" style="pointer-events: none; stroke-width: 1; fill: rgb(167, 210, 198); fill-opacity: 1; stroke: rgb(255, 255, 255); stroke-opacity: 1; opacity: 1;"/><g class="slicetext"><text data-notex="1" class="slicetext" text-anchor="start" x="0" y="0" style="font-family: 'Open Sans', verdana, arial, sans-serif; font-size: 12px; fill: rgb(68, 68, 68); fill-opacity: 1; white-space: pre;" transform="translate(759.0294671736868,567.0659545890489)scale(0.8599457612597112)"><tspan class="line" dy="0em" x="0" y="0">Estatus Social</tspan><tspan class="line" dy="1.3em" x="0" y="0">969</tspan></text></g></g><g class="slice cursor-pointer"><path class="surface" d="M837.1439812468254,559.6065512151921a5,5 0 0 1 5,-5L902.5572205060024,554.6065512151921a5,5 0 0 1 5,5L907.5572205060024,638.0883809109683a5,5 0 0 1 -5,5L842.1439812468254,643.0883809109683a5,5 0 0 1 -5,-5Z" style="pointer-events: none; stroke-width: 1; fill: rgb(173, 213, 200); fill-opacity: 1; stroke: rgb(255, 255, 255); stroke-opacity: 1; opacity: 1;"/><g class="slicetext"><text data-notex="1" class="slicetext" text-anchor="start" x="0" y="0" style="font-family: 'Open Sans', verdana, arial, sans-serif; font-size: 12px; fill: rgb(68, 68, 68); fill-opacity: 1; white-space: pre;" transform="translate(840.1439812468254,568.6065512151921)"><tspan class="line" dy="0em" x="0" y="0">Censo</tspan><tspan class="line" dy="1.3em" x="0" y="0">877</tspan></text></g></g><g class="slice cursor-pointer"><path class="surface" d="M910.5572205060024,559.6065512151921a5,5 0 0 1 5,-5L964,554.6065512151921a5,5 0 0 1 5,5L969,638.0883809109683a5,5 0 0 1 -5,5L915.5572205060024,643.0883809109683a5,5 0 0 1 -5,-5Z" style="pointer-events: none; stroke-width: 1; fill: rgb(182, 218, 205); fill-opacity: 1; stroke: rgb(255, 255, 255); stroke-opacity: 1; opacity: 1;"/><g class="slicetext"><text data-notex="1" class="slicetext" text-anchor="start" x="0" y="0" style="font-family: 'Open Sans', verdana, arial, sans-serif; font-size: 12px; fill: rgb(68, 68, 68); fill-opacity: 1; white-space: pre;" transform="translate(913.5572205060024,565.2997616264807)scale(0.699382764662606)"><tspan class="line" dy="0em" x="0" y="0">Color de Piel</tspan><tspan class="line" dy="1.3em" x="0" y="0">734</tspan></text></g></g><g class="slice cursor-pointer"><path class="surface" d="M756.0294671736868,651.0883809109683a5,5 0 0 1 5,-5L822.8984409583085,646.0883809109683a5,5 0 0 1 5,5L827.8984409583085,702.1181725841883a5,5 0 0 1 -5,5L761.0294671736868,707.1181725841883a5,5 0 0 1 -5,-5Z" style="pointer-events: none; stroke-width: 1; fill: rgb(189, 221, 208); fill-opacity: 1; stroke: rgb(255, 255, 255); stroke-opacity: 1; opacity: 1;"/><g class="slicetext"><text data-notex="1" class="slicetext" text-anchor="start" x="0" y="0" style="font-family: 'Open Sans', verdana, arial, sans-serif; font-size: 12px; fill: rgb(68, 68, 68); fill-opacity: 1; white-space: pre;" transform="translate(759.0294671736868,660.0883809109683)"><tspan class="line" dy="0em" x="0" y="0">Historia</tspan><tspan class="line" dy="1.3em" x="0" y="0">626</tspan></text></g></g><g class="slice cursor-pointer"><path class="surface" d="M756.0294671736868,715.1181725841883a5,5 0 0 1 5,-5L822.8984409583085,710.1181725841883a5,5 0 0 1 5,5L827.8984409583085,764a5,5 0 0 1 -5,5L761.0294671736868,769a5,5 0 0 1 -5,-5Z" style="pointer-events: none; stroke-width: 1; fill: rgb(190, 222, 208); fill-opacity: 1; stroke: rgb(255, 255, 255); stroke-opacity: 1; opacity: 1;"/><g class="slicetext"><text data-notex="1" class="slicetext" text-anchor="start" x="0" y="0" style="font-family: 'Open Sans', verdana, arial, sans-serif; font-size: 12px; fill: rgb(68, 68, 68); fill-opacity: 1; white-space: pre;" transform="translate(759.0294671736868,724.1181725841883)"><tspan class="line" dy="0em" x="0" y="0">Marital</tspan><tspan class="line" dy="1.3em" x="0" y="0">605</tspan></text></g></g><g class="slice cursor-pointer"><path class="surface" d="M830.8984409583085,651.0883809109683a5,5 0 0 1 5,-5L889.3743047654502,646.0883809109683a5,5 0 0 1 5,5L894.3743047654502,704.5577351784626a5,5 0 0 1 -5,5L835.8984409583085,709.5577351784626a5,5 0 0 1 -5,-5Z" style="pointer-events: none; stroke-width: 1; fill: rgb(192, 223, 209); fill-opacity: 1; stroke: rgb(255, 255, 255); stroke-opacity: 1; opacity: 1;"/><g class="slicetext"><text data-notex="1" class="slicetext" text-anchor="start" x="0" y="0" style="font-family: 'Open Sans', verdana, arial, sans-serif; font-size: 12px; fill: rgb(68, 68, 68); fill-opacity: 1; white-space: pre;" transform="translate(833.8984409583085,660.0883809109683)"><tspan class="line" dy="0em" x="0" y="0">Familia</tspan><tspan class="line" dy="1.3em" x="0" y="0">577</tspan></text></g></g><g class="slice cursor-pointer"><path class="surface" d="M830.8984409583085,717.5577351784626a5,5 0 0 1 5,-5L889.3743047654502,712.5577351784626a5,5 0 0 1 5,5L894.3743047654502,764a5,5 0 0 1 -5,5L835.8984409583085,769a5,5 0 0 1 -5,-5Z" style="pointer-events: none; stroke-width: 1; fill: rgb(196, 225, 211); fill-opacity: 1; stroke: rgb(255, 255, 255); stroke-opacity: 1; opacity: 1;"/><g class="slicetext"><text data-notex="1" class="slicetext" text-anchor="start" x="0" y="0" style="font-family: 'Open Sans', verdana, arial, sans-serif; font-size: 12px; fill: rgb(68, 68, 68); fill-opacity: 1; white-space: pre;" transform="translate(833.8984409583085,726.5577351784626)"><tspan class="line" dy="0em" x="0" y="0">Mercado</tspan><tspan class="line" dy="1.3em" x="0" y="0">516</tspan></text></g></g><g class="slice cursor-pointer"><path class="surface" d="M897.3743047654502,651.0883809109683a5,5 0 0 1 5,-5L964,646.0883809109683a5,5 0 0 1 5,5L969,677.2882492826147a5,5 0 0 1 -5,5L902.3743047654502,682.2882492826147a5,5 0 0 1 -5,-5Z" style="pointer-events: none; stroke-width: 1; fill: rgb(205, 230, 215); fill-opacity: 1; stroke: rgb(255, 255, 255); stroke-opacity: 1; opacity: 1;"/><g class="slicetext"><text data-notex="1" class="slicetext" text-anchor="start" x="0" y="0" style="font-family: 'Open Sans', verdana, arial, sans-serif; font-size: 12px; fill: rgb(68, 68, 68); fill-opacity: 1; white-space: pre;" transform="translate(900.3743047654502,658.9161812609201)scale(0.8934363954501564)"><tspan class="line" dy="0em" x="0" y="0">Deportacion</tspan><tspan class="line" dy="1.3em" x="0" y="0">382</tspan></text></g></g><g class="slice cursor-pointer"><path class="surface" d="M897.3743047654502,690.2882492826147a5,5 0 0 1 5,-5L931.0768991612281,685.2882492826147a5,5 0 0 1 5,5L936.0768991612281,726.1341585624673a5,5 0 0 1 -5,5L902.3743047654502,731.1341585624673a5,5 0 0 1 -5,-5Z" style="pointer-events: none; stroke-width: 1; fill: rgb(213, 233, 218); fill-opacity: 1; stroke: rgb(255, 255, 255); stroke-opacity: 1; opacity: 1;"/><g class="slicetext"><text data-notex="1" class="slicetext" text-anchor="start" x="0" y="0" style="font-family: 'Open Sans', verdana, arial, sans-serif; font-size: 12px; fill: rgb(68, 68, 68); fill-opacity: 1; white-space: pre;" transform="translate(900.3743047654502,695.4783262515803)scale(0.6536433608150476)"><tspan class="line" dy="0em" x="0" y="0">Frontera</tspan><tspan class="line" dy="1.3em" x="0" y="0">266</tspan></text></g></g><g class="slice cursor-pointer"><path class="surface" d="M939.0768991612281,690.2882492826147a5,5 0 0 1 5,-5L964,685.2882492826147a5,5 0 0 1 5,5L969,726.1341585624673a5,5 0 0 1 -5,5L944.0768991612281,731.1341585624673a5,5 0 0 1 -5,-5Z" style="pointer-events: none; stroke-width: 1; fill: rgb(217, 235, 220); fill-opacity: 1; stroke: rgb(255, 255, 255); stroke-opacity: 1; opacity: 1;"/><g class="slicetext"><text data-notex="1" class="slicetext" text-anchor="start" x="0" y="0" style="font-family: 'Open Sans', verdana, arial, sans-serif; font-size: 12px; fill: rgb(68, 68, 68); fill-opacity: 1; white-space: pre;" transform="translate(942.0768991612281,690.5595726798495)scale(0.2064839452031561)"><tspan class="line" dy="0em" x="0" y="0">Pueblos Originarios</tspan><tspan class="line" dy="1.3em" x="0" y="0">210</tspan></text></g></g><g class="slice cursor-pointer"><path class="surface" d="M897.3743047654502,739.1341585624673a5,5 0 0 1 5,-5L923.350231051099,734.1341585624673a5,5 0 0 1 5,5L928.350231051099,764a5,5 0 0 1 -5,5L902.3743047654502,769a5,5 0 0 1 -5,-5Z" style="pointer-events: none; stroke-width: 1; fill: rgb(219, 237, 221); fill-opacity: 1; stroke: rgb(255, 255, 255); stroke-opacity: 1; opacity: 1;"/><g class="slicetext"><text data-notex="1" class="slicetext" text-anchor="start" x="0" y="0" style="font-family: 'Open Sans', verdana, arial, sans-serif; font-size: 12px; fill: rgb(68, 68, 68); fill-opacity: 1; white-space: pre;" transform="translate(900.3743047654502,739.4788781390904)scale(0.21315632514755534)"><tspan class="line" dy="0em" x="0" y="0">Derechos Humanos</tspan><tspan class="line" dy="1.3em" x="0" y="0">168</tspan></text></g></g><g class="slice cursor-pointer"><path class="surface" d="M931.350231051099,739.1341585624673a5,5 0 0 1 5,-5L956.3149690544366,734.1341585624673a5,5 0 0 1 5,5L961.3149690544366,764a5,5 0 0 1 -5,5L936.350231051099,769a5,5 0 0 1 -5,-5Z" style="pointer-events: none; stroke-width: 1; fill: rgb(220, 237, 221); fill-opacity: 1; stroke: rgb(255, 255, 255); stroke-opacity: 1; opacity: 1;"/><g class="slicetext"><text data-notex="1" class="slicetext" text-anchor="start" x="0" y="0" style="font-family: 'Open Sans', verdana, arial, sans-serif; font-size: 12px; fill: rgb(68, 68, 68); fill-opacity: 1; white-space: pre;" transform="translate(934.350231051099,745.8711733498053)scale(0.7942740715761825)"><tspan class="line" dy="0em" x="0" y="0">Edad</tspan><tspan class="line" dy="1.3em" x="0" y="0">163</tspan></text></g></g><g class="slice cursor-pointer"><path class="surface" d="M964.3149690544366,736.4766740352491a2.342515472781713,2.342515472781713 0 0 1 2.342515472781713,-2.342515472781713L966.6574845272182,734.1341585624673a2.342515472781713,2.342515472781713 0 0 1 2.342515472781713,2.342515472781713L969,766.6574845272182a2.342515472781713,2.342515472781713 0 0 1 -2.342515472781713,2.342515472781713L966.6574845272182,769a2.342515472781713,2.342515472781713 0 0 1 -2.342515472781713,-2.342515472781713Z" style="pointer-events: none; stroke-width: 1; fill: rgb(228, 241, 225); fill-opacity: 1; stroke: rgb(255, 255, 255); stroke-opacity: 1; opacity: 1;"/><g class="slicetext"><text data-notex="1" class="slicetext" text-anchor="start" x="0" y="0" style="font-family: 'Open Sans', verdana, arial, sans-serif; font-size: 12px; fill: rgb(68, 68, 68); fill-opacity: 1; white-space: pre;" transform="translate(967.3149690544366,734.5876525519732)scale(0.0412267263187212)"><tspan class="line" dy="0em" x="0" y="0">Orientacion Sexual</tspan><tspan class="line" dy="1.3em" x="0" y="0">38</tspan></text></g></g></g></g><g class="sunburstlayer"/><g class="glimages"/><defs id="topdefs-72bdd3"><g class="clips"/></defs><g class="layer-above"><g class="imagelayer"/><g class="shapelayer"/></g><g class="infolayer"><g class="g-gtitle"/></g></svg>