<svg class="main-svg" xmlns="http://www.w3.org/2000/svg" xmlns:xlink="http://www.w3.org/1999/xlink" width="1000" height="800" style="" viewBox="0 0 1000 800"><rect x="0" y="0" width="1000" height="800" style="fill: rgb(255, 255, 255); fill-opacity: 1;"/><defs id="defs-e32939"><g class="clips"/><g class="gradients"/><g class="patterns"/></defs><g class="bglayer"/><g class="layer-below"><g class="imagelayer"/><g class="shapelayer"/></g><g class="cartesianlayer"/><g class="polarlayer"/><g class="smithlayer"/><g class="ternarylayer"/><g class="geolayer"/><g class="funnelarealayer"/><g class="pielayer"/><g class="iciclelayer"/><g class="treemaplayer"><g class="trace treemap" style="opacity: 1;"><g class="slice cursor-pointer"><path class="surface" d="M25,55a5,5 0 0 1 5,-5L970,50a5,5 0 0 1 5,5L975,770a5,5 0 0 1 -5,5L30,775a5,5 0 0 1 -5,-5Z" style="pointer-events: none; fill: rgb(68, 68, 68); fill-opacity: 1; stroke-width: 1; stroke: rgb(255, 255, 255); stroke-opacity: 1; opacity: 1;"/><g class="slicetext"><text data-notex="1" class="slicetext" text-anchor="start" x="0" y="0" style="font-family: 'Open Sans', verdana, arial, sans-serif; font-size: 12px; fill: rgb(255, 255, 255); fill-opacity: 1; white-space: pre;" transform="translate(32,64)">Topico</text></g></g><g class="slice cursor-pointer"><path class="surface" d="M31,79a5,5 0 0 1 5,-5L273.666120576671,74a5,5 0 0 1 5,5L278.666120576671,325.2816728167282a5,5 0 0 1 -5,5L36,330.2816728167282a5,5 0 0 1 -5,-5Z" style="pointer-events: none; stroke-width: 1; fill: rgb(13, 88, 95); fill-opacity: 1; stroke: rgb(255, 255, 255); stroke-opacity: 1; opacity: 1;"/><g class="slicetext"><text data-notex="1" class="slicetext" text-anchor="start" x="0" y="0" style="font-family: 'Open Sans', verdana, arial, sans-serif; font-size: 12px; fill: rgb(255, 255, 255); fill-opacity: 1; white-space: pre;" transform="translate(34,88)"><tspan class="line" dy="0em" x="0" y="0">Pueblos Originarios</tspan><tspan class="line" dy="1.3em" x="0" y="0">302</tspan></text></g></g><g class="slice cursor-pointer"><path class="surface" d="M31,338.2816728167282a5,5 0 0 1 5,-5L273.666120576671,333.2816728167282a5,5 0 0 1 5,5L278.666120576671,554.5141451414514a5,5 0 0 1 -5,5L36,559.5141451414514a5,5 0 0 1 -5,-5Z" style="pointer-events: none; stroke-width: 1; fill: rgb(32, 106, 110); fill-opacity: 1; stroke: rgb(255, 255, 255); stroke-opacity: 1; opacity: 1;"/><g class="slicetext"><text data-notex="1" class="slicetext" text-anchor="start" x="0" y="0" style="font-family: 'Open Sans', verdana, arial, sans-serif; font-size: 12px; fill: rgb(255, 255, 255); fill-opacity: 1; white-space: pre;" transform="translate(35,347.2816728167282)"><tspan class="line" dy="0em" x="0" y="0">Territorio</tspan><tspan class="line" dy="1.3em" x="0" y="0">267</tspan></text></g></g><g class="slice cursor-pointer"><path class="surface" d="M31,567.5141451414514a5,5 0 0 1 5,-5L273.666120576671,562.5141451414514a5,5 0 0 1 5,5L278.666120576671,764a5,5 0 0 1 -5,5L36,769a5,5 0 0 1 -5,-5Z" style="pointer-events: none; stroke-width: 1; fill: rgb(44, 118, 119); fill-opacity: 1; stroke: rgb(255, 255, 255); stroke-opacity: 1; opacity: 1;"/><g class="slicetext"><text data-notex="1" class="slicetext" text-anchor="start" x="0" y="0" style="font-family: 'Open Sans', verdana, arial, sans-serif; font-size: 12px; fill: rgb(255, 255, 255); fill-opacity: 1; white-space: pre;" transform="translate(34,576.5141451414514)"><tspan class="line" dy="0em" x="0" y="0">Estado</tspan><tspan class="line" dy="1.3em" x="0" y="0">244</tspan></text></g></g><g class="slice cursor-pointer"><path class="surface" d="M281.666120576671,79a5,5 0 0 1 5,-5L512.1038091932814,74a5,5 0 0 1 5,5L517.1038091932814,255.5417597141581a5,5 0 0 1 -5,5L286.666120576671,260.5417597141581a5,5 0 0 1 -5,-5Z" style="pointer-events: none; stroke-width: 1; fill: rgb(63, 136, 134); fill-opacity: 1; stroke: rgb(255, 255, 255); stroke-opacity: 1; opacity: 1;"/><g class="slicetext"><text data-notex="1" class="slicetext" text-anchor="start" x="0" y="0" style="font-family: 'Open Sans', verdana, arial, sans-serif; font-size: 12px; fill: rgb(255, 255, 255); fill-opacity: 1; white-space: pre;" transform="translate(284.666120576671,88)"><tspan class="line" dy="0em" x="0" y="0">Voto</tspan><tspan class="line" dy="1.3em" x="0" y="0">210</tspan></text></g></g><g class="slice cursor-pointer"><path class="surface" d="M520.1038091932814,79a5,5 0 0 1 5,-5L741.4581572911637,74a5,5 0 0 1 5,5L746.4581572911637,255.5417597141581a5,5 0 0 1 -5,5L525.1038091932814,260.5417597141581a5,5 0 0 1 -5,-5Z" style="pointer-events: none; stroke-width: 1; fill: rgb(68, 140, 138); fill-opacity: 1; stroke: rgb(255, 255, 255); stroke-opacity: 1; opacity: 1;"/><g class="slicetext"><text data-notex="1" class="slicetext" text-anchor="start" x="0" y="0" style="font-family: 'Open Sans', verdana, arial, sans-serif; font-size: 12px; fill: rgb(255, 255, 255); fill-opacity: 1; white-space: pre;" transform="translate(523.1038091932814,88)"><tspan class="line" dy="0em" x="0" y="0">Reforma</tspan><tspan class="line" dy="1.3em" x="0" y="0">202</tspan></text></g></g><g class="slice cursor-pointer"><path class="surface" d="M749.4581572911637,79a5,5 0 0 1 5,-5L964,74a5,5 0 0 1 5,5L969,255.5417597141581a5,5 0 0 1 -5,5L754.4581572911637,260.5417597141581a5,5 0 0 1 -5,-5Z" style="pointer-events: none; stroke-width: 1; fill: rgb(72, 143, 140); fill-opacity: 1; stroke: rgb(255, 255, 255); stroke-opacity: 1; opacity: 1;"/><g class="slicetext"><text data-notex="1" class="slicetext" text-anchor="start" x="0" y="0" style="font-family: 'Open Sans', verdana, arial, sans-serif; font-size: 12px; fill: rgb(255, 255, 255); fill-opacity: 1; white-space: pre;" transform="translate(752.4581572911637,88)"><tspan class="line" dy="0em" x="0" y="0">Historia</tspan><tspan class="line" dy="1.3em" x="0" y="0">196</tspan></text></g></g><g class="slice cursor-pointer"><path class="surface" d="M281.666120576671,268.5417597141581a5,5 0 0 1 5,-5L453.1275337437412,263.5417597141581a5,5 0 0 1 5,5L458.1275337437412,447.41279378428715a5,5 0 0 1 -5,5L286.666120576671,452.41279378428715a5,5 0 0 1 -5,-5Z" style="pointer-events: none; stroke-width: 1; fill: rgb(94, 162, 156); fill-opacity: 1; stroke: rgb(255, 255, 255); stroke-opacity: 1; opacity: 1;"/><g class="slicetext"><text data-notex="1" class="slicetext" text-anchor="start" x="0" y="0" style="font-family: 'Open Sans', verdana, arial, sans-serif; font-size: 12px; fill: rgb(68, 68, 68); fill-opacity: 1; white-space: pre;" transform="translate(284.666120576671,277.5417597141581)"><tspan class="line" dy="0em" x="0" y="0">Ejecutivo</tspan><tspan class="line" dy="1.3em" x="0" y="0">160</tspan></text></g></g><g class="slice cursor-pointer"><path class="surface" d="M281.666120576671,460.41279378428715a5,5 0 0 1 5,-5L453.1275337437412,455.41279378428715a5,5 0 0 1 5,5L458.1275337437412,634.487052002663a5,5 0 0 1 -5,5L286.666120576671,639.487052002663a5,5 0 0 1 -5,-5Z" style="pointer-events: none; stroke-width: 1; fill: rgb(96, 164, 158); fill-opacity: 1; stroke: rgb(255, 255, 255); stroke-opacity: 1; opacity: 1;"/><g class="slicetext"><text data-notex="1" class="slicetext" text-anchor="start" x="0" y="0" style="font-family: 'Open Sans', verdana, arial, sans-serif; font-size: 12px; fill: rgb(68, 68, 68); fill-opacity: 1; white-space: pre;" transform="translate(284.666120576671,469.41279378428715)"><tspan class="line" dy="0em" x="0" y="0">Educacion</tspan><tspan class="line" dy="1.3em" x="0" y="0">156</tspan></text></g></g><g class="slice cursor-pointer"><path class="surface" d="M281.666120576671,647.487052002663a5,5 0 0 1 5,-5L453.1275337437412,642.487052002663a5,5 0 0 1 5,5L458.1275337437412,764a5,5 0 0 1 -5,5L286.666120576671,769a5,5 0 0 1 -5,-5Z" style="pointer-events: none; stroke-width: 1; fill: rgb(132, 189, 179); fill-opacity: 1; stroke: rgb(255, 255, 255); stroke-opacity: 1; opacity: 1;"/><g class="slicetext"><text data-notex="1" class="slicetext" text-anchor="start" x="0" y="0" style="font-family: 'Open Sans', verdana, arial, sans-serif; font-size: 12px; fill: rgb(68, 68, 68); fill-opacity: 1; white-space: pre;" transform="translate(284.666120576671,656.487052002663)"><tspan class="line" dy="0em" x="0" y="0">Familia</tspan><tspan class="line" dy="1.3em" x="0" y="0">108</tspan></text></g></g><g class="slice cursor-pointer"><path class="surface" d="M461.1275337437412,268.5417597141581a5,5 0 0 1 5,-5L597.4585287672576,263.5417597141581a5,5 0 0 1 5,5L602.4585287672576,401.667588300705a5,5 0 0 1 -5,5L466.1275337437412,406.667588300705a5,5 0 0 1 -5,-5Z" style="pointer-events: none; stroke-width: 1; fill: rgb(140, 194, 183); fill-opacity: 1; stroke: rgb(255, 255, 255); stroke-opacity: 1; opacity: 1;"/><g class="slicetext"><text data-notex="1" class="slicetext" text-anchor="start" x="0" y="0" style="font-family: 'Open Sans', verdana, arial, sans-serif; font-size: 12px; fill: rgb(68, 68, 68); fill-opacity: 1; white-space: pre;" transform="translate(464.1275337437412,277.5417597141581)"><tspan class="line" dy="0em" x="0" y="0">Distrito</tspan><tspan class="line" dy="1.3em" x="0" y="0">98</tspan></text></g></g><g class="slice cursor-pointer"><path class="surface" d="M461.1275337437412,414.667588300705a5,5 0 0 1 5,-5L597.4585287672576,409.667588300705a5,5 0 0 1 5,5L602.4585287672576,531.3915381683538a5,5 0 0 1 -5,5L466.1275337437412,536.3915381683538a5,5 0 0 1 -5,-5Z" style="pointer-events: none; stroke-width: 1; fill: rgb(149, 199, 188); fill-opacity: 1; stroke: rgb(255, 255, 255); stroke-opacity: 1; opacity: 1;"/><g class="slicetext"><text data-notex="1" class="slicetext" text-anchor="start" x="0" y="0" style="font-family: 'Open Sans', verdana, arial, sans-serif; font-size: 12px; fill: rgb(68, 68, 68); fill-opacity: 1; white-space: pre;" transform="translate(464.1275337437412,423.667588300705)"><tspan class="line" dy="0em" x="0" y="0">Cultura</tspan><tspan class="line" dy="1.3em" x="0" y="0">87</tspan></text></g></g><g class="slice cursor-pointer"><path class="surface" d="M461.1275337437412,544.3915381683538a5,5 0 0 1 5,-5L597.4585287672576,539.3915381683538a5,5 0 0 1 5,5L602.4585287672576,655.1511685018578a5,5 0 0 1 -5,5L466.1275337437412,660.1511685018578a5,5 0 0 1 -5,-5Z" style="pointer-events: none; stroke-width: 1; fill: rgb(153, 201, 190); fill-opacity: 1; stroke: rgb(255, 255, 255); stroke-opacity: 1; opacity: 1;"/><g class="slicetext"><text data-notex="1" class="slicetext" text-anchor="start" x="0" y="0" style="font-family: 'Open Sans', verdana, arial, sans-serif; font-size: 12px; fill: rgb(68, 68, 68); fill-opacity: 1; white-space: pre;" transform="translate(464.1275337437412,553.3915381683538)"><tspan class="line" dy="0em" x="0" y="0">Igualdad</tspan><tspan class="line" dy="1.3em" x="0" y="0">83</tspan></text></g></g><g class="slice cursor-pointer"><path class="surface" d="M461.1275337437412,668.1511685018578a5,5 0 0 1 5,-5L597.4585287672576,663.1511685018578a5,5 0 0 1 5,5L602.4585287672576,763.9999999999999a5,5 0 0 1 -5,5L466.1275337437412,768.9999999999999a5,5 0 0 1 -5,-5Z" style="pointer-events: none; stroke-width: 1; fill: rgb(161, 206, 194); fill-opacity: 1; stroke: rgb(255, 255, 255); stroke-opacity: 1; opacity: 1;"/><g class="slicetext"><text data-notex="1" class="slicetext" text-anchor="start" x="0" y="0" style="font-family: 'Open Sans', verdana, arial, sans-serif; font-size: 12px; fill: rgb(68, 68, 68); fill-opacity: 1; white-space: pre;" transform="translate(464.1275337437412,677.1511685018578)"><tspan class="line" dy="0em" x="0" y="0">Derechos Humanos</tspan><tspan class="line" dy="1.3em" x="0" y="0">73</tspan></text></g></g><g class="slice cursor-pointer"><path class="surface" d="M605.4585287672576,268.5417597141581a5,5 0 0 1 5,-5L734.1993885017522,263.5417597141581a5,5 0 0 1 5,5L739.1993885017522,368.8586654591552a5,5 0 0 1 -5,5L610.4585287672576,373.8586654591552a5,5 0 0 1 -5,-5Z" style="pointer-events: none; stroke-width: 1; fill: rgb(162, 207, 195); fill-opacity: 1; stroke: rgb(255, 255, 255); stroke-opacity: 1; opacity: 1;"/><g class="slicetext"><text data-notex="1" class="slicetext" text-anchor="start" x="0" y="0" style="font-family: 'Open Sans', verdana, arial, sans-serif; font-size: 12px; fill: rgb(68, 68, 68); fill-opacity: 1; white-space: pre;" transform="translate(608.4585287672576,277.5417597141581)"><tspan class="line" dy="0em" x="0" y="0">Presupuesto</tspan><tspan class="line" dy="1.3em" x="0" y="0">72</tspan></text></g></g><g class="slice cursor-pointer"><path class="surface" d="M742.1993885017522,268.5417597141581a5,5 0 0 1 5,-5L850.0492835545879,263.5417597141581a5,5 0 0 1 5,5L855.0492835545879,368.8586654591552a5,5 0 0 1 -5,5L747.1993885017522,373.8586654591552a5,5 0 0 1 -5,-5Z" style="pointer-events: none; stroke-width: 1; fill: rgb(172, 212, 200); fill-opacity: 1; stroke: rgb(255, 255, 255); stroke-opacity: 1; opacity: 1;"/><g class="slicetext"><text data-notex="1" class="slicetext" text-anchor="start" x="0" y="0" style="font-family: 'Open Sans', verdana, arial, sans-serif; font-size: 12px; fill: rgb(68, 68, 68); fill-opacity: 1; white-space: pre;" transform="translate(745.1993885017522,277.5417597141581)"><tspan class="line" dy="0em" x="0" y="0">Legislativo</tspan><tspan class="line" dy="1.3em" x="0" y="0">61</tspan></text></g></g><g class="slice cursor-pointer"><path class="surface" d="M858.0492835545879,268.5417597141581a5,5 0 0 1 5,-5L964,263.5417597141581a5,5 0 0 1 5,5L969,368.8586654591552a5,5 0 0 1 -5,5L863.0492835545879,373.8586654591552a5,5 0 0 1 -5,-5Z" style="pointer-events: none; stroke-width: 1; fill: rgb(172, 213, 200); fill-opacity: 1; stroke: rgb(255, 255, 255); stroke-opacity: 1; opacity: 1;"/><g class="slicetext"><text data-notex="1" class="slicetext" text-anchor="start" x="0" y="0" style="font-family: 'Open Sans', verdana, arial, sans-serif; font-size: 12px; fill: rgb(68, 68, 68); fill-opacity: 1; white-space: pre;" transform="translate(861.0492835545879,274.1158554986348)scale(0.6885541622251539)"><tspan class="line" dy="0em" x="0" y="0">Derechos Fundamentales</tspan><tspan class="line" dy="1.3em" x="0" y="0">60</tspan></text></g></g><g class="slice cursor-pointer"><path class="surface" d="M605.4585287672576,381.8586654591552a5,5 0 0 1 5,-5L710.6833811375811,376.8586654591552a5,5 0 0 1 5,5L715.6833811375811,481.00130275083626a5,5 0 0 1 -5,5L610.4585287672576,486.00130275083626a5,5 0 0 1 -5,-5Z" style="pointer-events: none; stroke-width: 1; fill: rgb(173, 213, 201); fill-opacity: 1; stroke: rgb(255, 255, 255); stroke-opacity: 1; opacity: 1;"/><g class="slicetext"><text data-notex="1" class="slicetext" text-anchor="start" x="0" y="0" style="font-family: 'Open Sans', verdana, arial, sans-serif; font-size: 12px; fill: rgb(68, 68, 68); fill-opacity: 1; white-space: pre;" transform="translate(608.4585287672576,388.5102744756282)scale(0.7865099105884574)"><tspan class="line" dy="0em" x="0" y="0">Derecho Internacional</tspan><tspan class="line" dy="1.3em" x="0" y="0">59</tspan></text></g></g><g class="slice cursor-pointer"><path class="surface" d="M718.6833811375811,381.8586654591552a5,5 0 0 1 5,-5L804.7175805637821,376.8586654591552a5,5 0 0 1 5,5L809.7175805637821,481.00130275083626a5,5 0 0 1 -5,5L723.6833811375811,486.00130275083626a5,5 0 0 1 -5,-5Z" style="pointer-events: none; stroke-width: 1; fill: rgb(182, 218, 205); fill-opacity: 1; stroke: rgb(255, 255, 255); stroke-opacity: 1; opacity: 1;"/><g class="slicetext"><text data-notex="1" class="slicetext" text-anchor="start" x="0" y="0" style="font-family: 'Open Sans', verdana, arial, sans-serif; font-size: 12px; fill: rgb(68, 68, 68); fill-opacity: 1; white-space: pre;" transform="translate(721.6833811375811,390.8586654591552)"><tspan class="line" dy="0em" x="0" y="0">Censura</tspan><tspan class="line" dy="1.3em" x="0" y="0">49</tspan></text></g></g><g class="slice cursor-pointer"><path class="surface" d="M812.7175805637821,381.8586654591552a5,5 0 0 1 5,-5L885.3183229290972,376.8586654591552a5,5 0 0 1 5,5L890.3183229290972,481.00130275083626a5,5 0 0 1 -5,5L817.7175805637821,486.00130275083626a5,5 0 0 1 -5,-5Z" style="pointer-events: none; stroke-width: 1; fill: rgb(189, 221, 208); fill-opacity: 1; stroke: rgb(255, 255, 255); stroke-opacity: 1; opacity: 1;"/><g class="slicetext"><text data-notex="1" class="slicetext" text-anchor="start" x="0" y="0" style="font-family: 'Open Sans', verdana, arial, sans-serif; font-size: 12px; fill: rgb(68, 68, 68); fill-opacity: 1; white-space: pre;" transform="translate(815.7175805637821,389.1468398879707)scale(0.8443794935286838)"><tspan class="line" dy="0em" x="0" y="0">Comunicacion</tspan><tspan class="line" dy="1.3em" x="0" y="0">42</tspan></text></g></g><g class="slice cursor-pointer"><path class="surface" d="M893.3183229290972,381.8586654591552a5,5 0 0 1 5,-5L964,376.8586654591552a5,5 0 0 1 5,5L969,481.00130275083626a5,5 0 0 1 -5,5L898.3183229290972,486.00130275083626a5,5 0 0 1 -5,-5Z" style="pointer-events: none; stroke-width: 1; fill: rgb(190, 222, 208); fill-opacity: 1; stroke: rgb(255, 255, 255); stroke-opacity: 1; opacity: 1;"/><g class="slicetext"><text data-notex="1" class="slicetext" text-anchor="start" x="0" y="0" style="font-family: 'Open Sans', verdana, arial, sans-serif; font-size: 12px; fill: rgb(68, 68, 68); fill-opacity: 1; white-space: pre;" transform="translate(896.3183229290972,386.85865128362946)scale(0.6363623476794773)"><tspan class="line" dy="0em" x="0" y="0">Derechos Sociales</tspan><tspan class="line" dy="1.3em" x="0" y="0">41</tspan></text></g></g><g class="slice cursor-pointer"><path class="surface" d="M605.4585287672576,494.00130275083626a5,5 0 0 1 5,-5L687.9532073496151,489.00130275083626a5,5 0 0 1 5,5L692.9532073496151,578.5050555845818a5,5 0 0 1 -5,5L610.4585287672576,583.5050555845818a5,5 0 0 1 -5,-5Z" style="pointer-events: none; stroke-width: 1; fill: rgb(190, 222, 208); fill-opacity: 1; stroke: rgb(255, 255, 255); stroke-opacity: 1; opacity: 1;"/><g class="slicetext"><text data-notex="1" class="slicetext" text-anchor="start" x="0" y="0" style="font-family: 'Open Sans', verdana, arial, sans-serif; font-size: 12px; fill: rgb(68, 68, 68); fill-opacity: 1; white-space: pre;" transform="translate(608.4585287672576,503.00130275083626)"><tspan class="line" dy="0em" x="0" y="0">Religion</tspan><tspan class="line" dy="1.3em" x="0" y="0">41</tspan></text></g></g><g class="slice cursor-pointer"><path class="surface" d="M605.4585287672576,591.5050555845818a5,5 0 0 1 5,-5L687.9532073496151,586.5050555845818a5,5 0 0 1 5,5L692.9532073496151,673.630668105309a5,5 0 0 1 -5,5L610.4585287672576,678.630668105309a5,5 0 0 1 -5,-5Z" style="pointer-events: none; stroke-width: 1; fill: rgb(191, 222, 209); fill-opacity: 1; stroke: rgb(255, 255, 255); stroke-opacity: 1; opacity: 1;"/><g class="slicetext"><text data-notex="1" class="slicetext" text-anchor="start" x="0" y="0" style="font-family: 'Open Sans', verdana, arial, sans-serif; font-size: 12px; fill: rgb(68, 68, 68); fill-opacity: 1; white-space: pre;" transform="translate(608.4585287672576,600.5050555845818)"><tspan class="line" dy="0em" x="0" y="0">Propiedad</tspan><tspan class="line" dy="1.3em" x="0" y="0">40</tspan></text></g></g><g class="slice cursor-pointer"><path class="surface" d="M605.4585287672576,686.630668105309a5,5 0 0 1 5,-5L687.9532073496151,681.630668105309a5,5 0 0 1 5,5L692.9532073496151,764a5,5 0 0 1 -5,5L610.4585287672576,769a5,5 0 0 1 -5,-5Z" style="pointer-events: none; stroke-width: 1; fill: rgb(193, 223, 210); fill-opacity: 1; stroke: rgb(255, 255, 255); stroke-opacity: 1; opacity: 1;"/><g class="slicetext"><text data-notex="1" class="slicetext" text-anchor="start" x="0" y="0" style="font-family: 'Open Sans', verdana, arial, sans-serif; font-size: 12px; fill: rgb(68, 68, 68); fill-opacity: 1; white-space: pre;" transform="translate(608.4585287672576,690.6187960378818)scale(0.5443752665975246)"><tspan class="line" dy="0em" x="0" y="0">Medios de Comunicacion</tspan><tspan class="line" dy="1.3em" x="0" y="0">38</tspan></text></g></g><g class="slice cursor-pointer"><path class="surface" d="M695.9532073496151,494.00130275083626a5,5 0 0 1 5,-5L785.5455077815694,489.00130275083626a5,5 0 0 1 5,5L790.5455077815694,558.1827656369718a5,5 0 0 1 -5,5L700.9532073496151,563.1827656369718a5,5 0 0 1 -5,-5Z" style="pointer-events: none; stroke-width: 1; fill: rgb(195, 225, 211); fill-opacity: 1; stroke: rgb(255, 255, 255); stroke-opacity: 1; opacity: 1;"/><g class="slicetext"><text data-notex="1" class="slicetext" text-anchor="start" x="0" y="0" style="font-family: 'Open Sans', verdana, arial, sans-serif; font-size: 12px; fill: rgb(68, 68, 68); fill-opacity: 1; white-space: pre;" transform="translate(698.9532073496151,503.00130275083626)"><tspan class="line" dy="0em" x="0" y="0">Simbolos</tspan><tspan class="line" dy="1.3em" x="0" y="0">35</tspan></text></g></g><g class="slice cursor-pointer"><path class="surface" d="M793.5455077815694,494.00130275083626a5,5 0 0 1 5,-5L880.3494567726107,489.00130275083626a5,5 0 0 1 5,5L885.3494567726107,558.1827656369718a5,5 0 0 1 -5,5L798.5455077815694,563.1827656369718a5,5 0 0 1 -5,-5Z" style="pointer-events: none; stroke-width: 1; fill: rgb(196, 225, 211); fill-opacity: 1; stroke: rgb(255, 255, 255); stroke-opacity: 1; opacity: 1;"/><g class="slicetext"><text data-notex="1" class="slicetext" text-anchor="start" x="0" y="0" style="font-family: 'Open Sans', verdana, arial, sans-serif; font-size: 12px; fill: rgb(68, 68, 68); fill-opacity: 1; white-space: pre;" transform="translate(797.5455077815694,503.00130275083626)"><tspan class="line" dy="0em" x="0" y="0">Judicial</tspan><tspan class="line" dy="1.3em" x="0" y="0">34</tspan></text></g></g><g class="slice cursor-pointer"><path class="surface" d="M888.3494567726107,494.00130275083626a5,5 0 0 1 5,-5L964,489.00130275083626a5,5 0 0 1 5,5L969,558.1827656369718a5,5 0 0 1 -5,5L893.3494567726107,563.1827656369718a5,5 0 0 1 -5,-5Z" style="pointer-events: none; stroke-width: 1; fill: rgb(200, 227, 213); fill-opacity: 1; stroke: rgb(255, 255, 255); stroke-opacity: 1; opacity: 1;"/><g class="slicetext"><text data-notex="1" class="slicetext" text-anchor="start" x="0" y="0" style="font-family: 'Open Sans', verdana, arial, sans-serif; font-size: 12px; fill: rgb(68, 68, 68); fill-opacity: 1; white-space: pre;" transform="translate(891.3494567726107,503.00130275083626)"><tspan class="line" dy="0em" x="0" y="0">Economia</tspan><tspan class="line" dy="1.3em" x="0" y="0">30</tspan></text></g></g><g class="slice cursor-pointer"><path class="surface" d="M695.9532073496151,571.1827656369718a5,5 0 0 1 5,-5L775.786277738374,566.1827656369718a5,5 0 0 1 5,5L780.786277738374,629.2387155956363a5,5 0 0 1 -5,5L700.9532073496151,634.2387155956363a5,5 0 0 1 -5,-5Z" style="pointer-events: none; stroke-width: 1; fill: rgb(201, 228, 213); fill-opacity: 1; stroke: rgb(255, 255, 255); stroke-opacity: 1; opacity: 1;"/><g class="slicetext"><text data-notex="1" class="slicetext" text-anchor="start" x="0" y="0" style="font-family: 'Open Sans', verdana, arial, sans-serif; font-size: 12px; fill: rgb(68, 68, 68); fill-opacity: 1; white-space: pre;" transform="translate(698.9532073496151,580.1827656369718)"><tspan class="line" dy="0em" x="0" y="0">Ciencia</tspan><tspan class="line" dy="1.3em" x="0" y="0">29</tspan></text></g></g><g class="slice cursor-pointer"><path class="surface" d="M695.9532073496151,642.2387155956363a5,5 0 0 1 5,-5L775.786277738374,637.2387155956363a5,5 0 0 1 5,5L780.786277738374,700.2946655543009a5,5 0 0 1 -5,5L700.9532073496151,705.2946655543009a5,5 0 0 1 -5,-5Z" style="pointer-events: none; stroke-width: 1; fill: rgb(201, 228, 213); fill-opacity: 1; stroke: rgb(255, 255, 255); stroke-opacity: 1; opacity: 1;"/><g class="slicetext"><text data-notex="1" class="slicetext" text-anchor="start" x="0" y="0" style="font-family: 'Open Sans', verdana, arial, sans-serif; font-size: 12px; fill: rgb(68, 68, 68); fill-opacity: 1; white-space: pre;" transform="translate(698.9532073496151,651.2387155956363)"><tspan class="line" dy="0em" x="0" y="0">Mercado</tspan><tspan class="line" dy="1.3em" x="0" y="0">29</tspan></text></g></g><g class="slice cursor-pointer"><path class="surface" d="M695.9532073496151,713.2946655543009a5,5 0 0 1 5,-5L775.786277738374,708.2946655543009a5,5 0 0 1 5,5L780.786277738374,764.0000000000001a5,5 0 0 1 -5,5L700.9532073496151,769.0000000000001a5,5 0 0 1 -5,-5Z" style="pointer-events: none; stroke-width: 1; fill: rgb(204, 229, 215); fill-opacity: 1; stroke: rgb(255, 255, 255); stroke-opacity: 1; opacity: 1;"/><g class="slicetext"><text data-notex="1" class="slicetext" text-anchor="start" x="0" y="0" style="font-family: 'Open Sans', verdana, arial, sans-serif; font-size: 12px; fill: rgb(68, 68, 68); fill-opacity: 1; white-space: pre;" transform="translate(698.9532073496151,722.2946655543009)"><tspan class="line" dy="0em" x="0" y="0">FFAA</tspan><tspan class="line" dy="1.3em" x="0" y="0">26</tspan></text></g></g><g class="slice cursor-pointer"><path class="surface" d="M783.786277738374,571.1827656369718a5,5 0 0 1 5,-5L845.6074972870417,566.1827656369718a5,5 0 0 1 5,5L850.6074972870417,629.075368584237a5,5 0 0 1 -5,5L788.786277738374,634.075368584237a5,5 0 0 1 -5,-5Z" style="pointer-events: none; stroke-width: 1; fill: rgb(207, 230, 216); fill-opacity: 1; stroke: rgb(255, 255, 255); stroke-opacity: 1; opacity: 1;"/><g class="slicetext"><text data-notex="1" class="slicetext" text-anchor="start" x="0" y="0" style="font-family: 'Open Sans', verdana, arial, sans-serif; font-size: 12px; fill: rgb(68, 68, 68); fill-opacity: 1; white-space: pre;" transform="translate(786.786277738374,573.7553989733944)scale(0.4156939396747901)"><tspan class="line" dy="0em" x="0" y="0">Reformas y Constitucion</tspan><tspan class="line" dy="1.3em" x="0" y="0">23</tspan></text></g></g><g class="slice cursor-pointer"><path class="surface" d="M853.6074972870417,571.1827656369718a5,5 0 0 1 5,-5L906.321601242405,566.1827656369718a5,5 0 0 1 5,5L911.321601242405,629.075368584237a5,5 0 0 1 -5,5L858.6074972870417,634.075368584237a5,5 0 0 1 -5,-5Z" style="pointer-events: none; stroke-width: 1; fill: rgb(210, 232, 217); fill-opacity: 1; stroke: rgb(255, 255, 255); stroke-opacity: 1; opacity: 1;"/><g class="slicetext"><text data-notex="1" class="slicetext" text-anchor="start" x="0" y="0" style="font-family: 'Open Sans', verdana, arial, sans-serif; font-size: 12px; fill: rgb(68, 68, 68); fill-opacity: 1; white-space: pre;" transform="translate(856.6074972870417,580.1827656369718)"><tspan class="line" dy="0em" x="0" y="0">Eleccion</tspan><tspan class="line" dy="1.3em" x="0" y="0">20</tspan></text></g></g><g class="slice cursor-pointer"><path class="surface" d="M914.321601242405,571.1827656369718a5,5 0 0 1 5,-5L964.0000000000001,566.1827656369718a5,5 0 0 1 5,5L969.0000000000001,629.075368584237a5,5 0 0 1 -5,5L919.321601242405,634.075368584237a5,5 0 0 1 -5,-5Z" style="pointer-events: none; stroke-width: 1; fill: rgb(211, 232, 217); fill-opacity: 1; stroke: rgb(255, 255, 255); stroke-opacity: 1; opacity: 1;"/><g class="slicetext"><text data-notex="1" class="slicetext" text-anchor="start" x="0" y="0" style="font-family: 'Open Sans', verdana, arial, sans-serif; font-size: 12px; fill: rgb(68, 68, 68); fill-opacity: 1; white-space: pre;" transform="translate(917.321601242405,579.8853242645005)scale(0.9729598752298837)"><tspan class="line" dy="0em" x="0" y="0">Frontera</tspan><tspan class="line" dy="1.3em" x="0" y="0">19</tspan></text></g></g><g class="slice cursor-pointer"><path class="surface" d="M783.786277738374,642.075368584237a5,5 0 0 1 5,-5L833.2074133436158,637.075368584237a5,5 0 0 1 5,5L838.2074133436158,696.5376842921185a5,5 0 0 1 -5,5L788.786277738374,701.5376842921185a5,5 0 0 1 -5,-5Z" style="pointer-events: none; stroke-width: 1; fill: rgb(212, 233, 218); fill-opacity: 1; stroke: rgb(255, 255, 255); stroke-opacity: 1; opacity: 1;"/><g class="slicetext"><text data-notex="1" class="slicetext" text-anchor="start" x="0" y="0" style="font-family: 'Open Sans', verdana, arial, sans-serif; font-size: 12px; fill: rgb(68, 68, 68); fill-opacity: 1; white-space: pre;" transform="translate(786.786277738374,651.075368584237)"><tspan class="line" dy="0em" x="0" y="0">Deber</tspan><tspan class="line" dy="1.3em" x="0" y="0">18</tspan></text></g></g><g class="slice cursor-pointer"><path class="surface" d="M783.786277738374,709.5376842921185a5,5 0 0 1 5,-5L833.2074133436158,704.5376842921185a5,5 0 0 1 5,5L838.2074133436158,764a5,5 0 0 1 -5,5L788.786277738374,769a5,5 0 0 1 -5,-5Z" style="pointer-events: none; stroke-width: 1; fill: rgb(212, 233, 218); fill-opacity: 1; stroke: rgb(255, 255, 255); stroke-opacity: 1; opacity: 1;"/><g class="slicetext"><text data-notex="1" class="slicetext" text-anchor="start" x="0" y="0" style="font-family: 'Open Sans', verdana, arial, sans-serif; font-size: 12px; fill: rgb(68, 68, 68); fill-opacity: 1; white-space: pre;" transform="translate(787.786277738374,718.5376842921185)"><tspan class="line" dy="0em" x="0" y="0">Trabajo</tspan><tspan class="line" dy="1.3em" x="0" y="0">18</tspan></text></g></g><g class="slice cursor-pointer"><path class="surface" d="M841.2074133436158,642.075368584237a5,5 0 0 1 5,-5L902.9634595603541,637.075368584237a5,5 0 0 1 5,5L907.9634595603541,678.4380386143943a5,5 0 0 1 -5,5L846.2074133436158,683.4380386143943a5,5 0 0 1 -5,-5Z" style="pointer-events: none; stroke-width: 1; fill: rgb(214, 234, 219); fill-opacity: 1; stroke: rgb(255, 255, 255); stroke-opacity: 1; opacity: 1;"/><g class="slicetext"><text data-notex="1" class="slicetext" text-anchor="start" x="0" y="0" style="font-family: 'Open Sans', verdana, arial, sans-serif; font-size: 12px; fill: rgb(68, 68, 68); fill-opacity: 1; white-space: pre;" transform="translate(844.2074133436158,648.6624508039888)scale(0.7806438381592546)"><tspan class="line" dy="0em" x="0" y="0">Nacionalidad</tspan><tspan class="line" dy="1.3em" x="0" y="0">16</tspan></text></g></g><g class="slice cursor-pointer"><path class="surface" d="M910.9634595603541,642.075368584237a5,5 0 0 1 5,-5L964,637.075368584237a5,5 0 0 1 5,5L969,678.4380386143943a5,5 0 0 1 -5,5L915.9634595603541,683.4380386143943a5,5 0 0 1 -5,-5Z" style="pointer-events: none; stroke-width: 1; fill: rgb(216, 235, 220); fill-opacity: 1; stroke: rgb(255, 255, 255); stroke-opacity: 1; opacity: 1;"/><g class="slicetext"><text data-notex="1" class="slicetext" text-anchor="start" x="0" y="0" style="font-family: 'Open Sans', verdana, arial, sans-serif; font-size: 12px; fill: rgb(68, 68, 68); fill-opacity: 1; white-space: pre;" transform="translate(913.9634595603541,651.075368584237)"><tspan class="line" dy="0em" x="0" y="0">Agua</tspan><tspan class="line" dy="1.3em" x="0" y="0">14</tspan></text></g></g><g class="slice cursor-pointer"><path class="surface" d="M841.2074133436158,691.4380386143943a5,5 0 0 1 5,-5L886.0274964163864,686.4380386143943a5,5 0 0 1 5,5L891.0274964163864,735.479346204798a5,5 0 0 1 -5,5L846.2074133436158,740.479346204798a5,5 0 0 1 -5,-5Z" style="pointer-events: none; stroke-width: 1; fill: rgb(216, 235, 220); fill-opacity: 1; stroke: rgb(255, 255, 255); stroke-opacity: 1; opacity: 1;"/><g class="slicetext"><text data-notex="1" class="slicetext" text-anchor="start" x="0" y="0" style="font-family: 'Open Sans', verdana, arial, sans-serif; font-size: 12px; fill: rgb(68, 68, 68); fill-opacity: 1; white-space: pre;" transform="translate(844.2074133436158,694.28703869035)scale(0.44081818872324985)"><tspan class="line" dy="0em" x="0" y="0">Derechos Civiles</tspan><tspan class="line" dy="1.3em" x="0" y="0">14</tspan></text></g></g><g class="slice cursor-pointer"><path class="surface" d="M841.2074133436158,748.479346204798a5,5 0 0 1 5,-5L886.0274964163864,743.479346204798a5,5 0 0 1 5,5L891.0274964163864,764a5,5 0 0 1 -5,5L846.2074133436158,769a5,5 0 0 1 -5,-5Z" style="pointer-events: none; stroke-width: 1; fill: rgb(222, 238, 222); fill-opacity: 1; stroke: rgb(255, 255, 255); stroke-opacity: 1; opacity: 1;"/><g class="slicetext"><text data-notex="1" class="slicetext" text-anchor="start" x="0" y="0" style="font-family: 'Open Sans', verdana, arial, sans-serif; font-size: 12px; fill: rgb(68, 68, 68); fill-opacity: 1; white-space: pre;" transform="translate(844.2074133436158,751.4089304942245)scale(0.4481440263114918)"><tspan class="line" dy="0em" x="0" y="0">Medio Ambiente</tspan><tspan class="line" dy="1.3em" x="0" y="0">7</tspan></text></g></g><g class="slice cursor-pointer"><path class="surface" d="M894.0274964163864,691.4380386143943a5,5 0 0 1 5,-5L928.5579529165393,686.4380386143943a5,5 0 0 1 5,5L933.5579529165393,708.7987345899318a5,5 0 0 1 -5,5L899.0274964163864,713.7987345899318a5,5 0 0 1 -5,-5Z" style="pointer-events: none; stroke-width: 1; fill: rgb(223, 239, 223); fill-opacity: 1; stroke: rgb(255, 255, 255); stroke-opacity: 1; opacity: 1;"/><g class="slicetext"><text data-notex="1" class="slicetext" text-anchor="start" x="0" y="0" style="font-family: 'Open Sans', verdana, arial, sans-serif; font-size: 12px; fill: rgb(68, 68, 68); fill-opacity: 1; white-space: pre;" transform="translate(897.0274964163864,692.6836650926161)scale(0.29505695256562453)"><tspan class="line" dy="0em" x="0" y="0">Orientacion Sexual</tspan><tspan class="line" dy="1.3em" x="0" y="0">6</tspan></text></g></g><g class="slice cursor-pointer"><path class="surface" d="M936.5579529165393,691.4380386143943a5,5 0 0 1 5,-5L964,686.4380386143943a5,5 0 0 1 5,5L969,708.7987345899318a5,5 0 0 1 -5,5L941.5579529165393,713.7987345899318a5,5 0 0 1 -5,-5Z" style="pointer-events: none; stroke-width: 1; fill: rgb(224, 239, 223); fill-opacity: 1; stroke: rgb(255, 255, 255); stroke-opacity: 1; opacity: 1;"/><g class="slicetext"><text data-notex="1" class="slicetext" text-anchor="start" x="0" y="0" style="font-family: 'Open Sans', verdana, arial, sans-serif; font-size: 12px; fill: rgb(68, 68, 68); fill-opacity: 1; white-space: pre;" transform="translate(939.5579529165393,696.3659139946534)scale(0.6298068527508316)"><tspan class="line" dy="0em" x="0" y="0">Partido</tspan><tspan class="line" dy="1.3em" x="0" y="0">5</tspan></text></g></g><g class="slice cursor-pointer"><path class="surface" d="M894.0274964163864,721.7987345899318a5,5 0 0 1 5,-5L909.4192474914705,716.7987345899318a5,5 0 0 1 5,5L914.4192474914705,736.3993672949659a5,5 0 0 1 -5,5L899.0274964163864,741.3993672949659a5,5 0 0 1 -5,-5Z" style="pointer-events: none; stroke-width: 1; fill: rgb(226, 240, 224); fill-opacity: 1; stroke: rgb(255, 255, 255); stroke-opacity: 1; opacity: 1;"/><g class="slicetext"><text data-notex="1" class="slicetext" text-anchor="start" x="0" y="0" style="font-family: 'Open Sans', verdana, arial, sans-serif; font-size: 12px; fill: rgb(68, 68, 68); fill-opacity: 1; white-space: pre;" transform="translate(897.0274964163864,724.0809800492974)scale(0.3892950417605175)"><tspan class="line" dy="0em" x="0" y="0">Censo</tspan><tspan class="line" dy="1.3em" x="0" y="0">3</tspan></text></g></g><g class="slice cursor-pointer"><path class="surface" d="M894.0274964163864,749.3993672949659a5,5 0 0 1 5,-5L909.4192474914705,744.3993672949659a5,5 0 0 1 5,5L914.4192474914705,764a5,5 0 0 1 -5,5L899.0274964163864,769a5,5 0 0 1 -5,-5Z" style="pointer-events: none; stroke-width: 1; fill: rgb(226, 240, 224); fill-opacity: 1; stroke: rgb(255, 255, 255); stroke-opacity: 1; opacity: 1;"/><g class="slicetext"><text data-notex="1" class="slicetext" text-anchor="start" x="0" y="0" style="font-family: 'Open Sans', verdana, arial, sans-serif; font-size: 12px; fill: rgb(68, 68, 68); fill-opacity: 1; white-space: pre;" transform="translate(897.0274964163864,749.2871617344776)scale(0.17161767631924432)"><tspan class="line" dy="0em" x="0" y="0">Estatus Social</tspan><tspan class="line" dy="1.3em" x="0" y="0">3</tspan></text></g></g><g class="slice cursor-pointer"><path class="surface" d="M917.4192474914705,721.7987345899318a5,5 0 0 1 5,-5L936.7096237457353,716.7987345899318a5,5 0 0 1 5,5L941.7096237457353,732.4564197656753a5,5 0 0 1 -5,5L922.4192474914705,737.4564197656753a5,5 0 0 1 -5,-5Z" style="pointer-events: none; stroke-width: 1; fill: rgb(226, 240, 224); fill-opacity: 1; stroke: rgb(255, 255, 255); stroke-opacity: 1; opacity: 1;"/><g class="slicetext"><text data-notex="1" class="slicetext" text-anchor="start" x="0" y="0" style="font-family: 'Open Sans', verdana, arial, sans-serif; font-size: 12px; fill: rgb(68, 68, 68); fill-opacity: 1; white-space: pre;" transform="translate(920.4192474914705,722.3947879937629)scale(0.23600485489373862)"><tspan class="line" dy="0em" x="0" y="0">Expropiacion</tspan><tspan class="line" dy="1.3em" x="0" y="0">3</tspan></text></g></g><g class="slice cursor-pointer"><path class="surface" d="M944.7096237457353,721.7987345899318a5,5 0 0 1 5,-5L964,716.7987345899318a5,5 0 0 1 5,5L969,732.4564197656753a5,5 0 0 1 -5,5L949.7096237457353,737.4564197656753a5,5 0 0 1 -5,-5Z" style="pointer-events: none; stroke-width: 1; fill: rgb(226, 240, 224); fill-opacity: 1; stroke: rgb(255, 255, 255); stroke-opacity: 1; opacity: 1;"/><g class="slicetext"><text data-notex="1" class="slicetext" text-anchor="start" x="0" y="0" style="font-family: 'Open Sans', verdana, arial, sans-serif; font-size: 12px; fill: rgb(68, 68, 68); fill-opacity: 1; white-space: pre;" transform="translate(947.7096237457353,722.9671462245288)scale(0.28803742132700383)"><tspan class="line" dy="0em" x="0" y="0">Ocupacion</tspan><tspan class="line" dy="1.3em" x="0" y="0">3</tspan></text></g></g><g class="slice cursor-pointer"><path class="surface" d="M917.4192474914705,745.4564197656753a5,5 0 0 1 5,-5L936.7096237457353,740.4564197656753a5,5 0 0 1 5,5L941.7096237457353,748.2282098828376a5,5 0 0 1 -5,5L922.4192474914705,753.2282098828376a5,5 0 0 1 -5,-5Z" style="pointer-events: none; stroke-width: 1; fill: rgb(227, 241, 225); fill-opacity: 1; stroke: rgb(255, 255, 255); stroke-opacity: 1; opacity: 1;"/><g class="slicetext"><text data-notex="1" class="slicetext" text-anchor="start" x="0" y="0" style="font-family: 'Open Sans', verdana, arial, sans-serif; font-size: 12px; fill: rgb(68, 68, 68); fill-opacity: 1; white-space: pre;" transform="translate(920.4192474914705,745.9721665954812)scale(0.2287042572550879)"><tspan class="line" dy="0em" x="0" y="0">Deportacion</tspan><tspan class="line" dy="1.3em" x="0" y="0">2</tspan></text></g></g><g class="slice cursor-pointer"><path class="surface" d="M917.4192474914705,761.2282098828376a5,5 0 0 1 5,-5L936.7096237457353,756.2282098828376a5,5 0 0 1 5,5L941.7096237457353,764a5,5 0 0 1 -5,5L922.4192474914705,769a5,5 0 0 1 -5,-5Z" style="pointer-events: none; stroke-width: 1; fill: rgb(227, 241, 225); fill-opacity: 1; stroke: rgb(255, 255, 255); stroke-opacity: 1; opacity: 1;"/><g class="slicetext"><text data-notex="1" class="slicetext" text-anchor="start" x="0" y="0" style="font-family: 'Open Sans', verdana, arial, sans-serif; font-size: 12px; fill: rgb(68, 68, 68); fill-opacity: 1; white-space: pre;" transform="translate(920.4192474914705,761.7439567126436)scale(0.2287042572550879)"><tspan class="line" dy="0em" x="0" y="0">Desempleo</tspan><tspan class="line" dy="1.3em" x="0" y="0">2</tspan></text></g></g><g class="slice cursor-pointer"><path class="surface" d="M944.7096237457353,745.4564197656753a5,5 0 0 1 5,-5L950.3548118728677,740.4564197656753a5,5 0 0 1 5,5L955.3548118728677,748.2282098828376a5,5 0 0 1 -5,5L949.7096237457353,753.2282098828376a5,5 0 0 1 -5,-5Z" style="pointer-events: none; stroke-width: 1; fill: rgb(228, 241, 225); fill-opacity: 1; stroke: rgb(255, 255, 255); stroke-opacity: 1; opacity: 1;"/><g class="slicetext"><text data-notex="1" class="slicetext" text-anchor="start" x="0" y="0" style="font-family: 'Open Sans', verdana, arial, sans-serif; font-size: 12px; fill: rgb(68, 68, 68); fill-opacity: 1; white-space: pre;" transform="translate(947.7096237457353,744.1378559902015)scale(0.06194874768419992)"><tspan class="line" dy="0em" x="0" y="0">Color de Piel</tspan><tspan class="line" dy="1.3em" x="0" y="0">1</tspan></text></g></g><g class="slice cursor-pointer"><path class="surface" d="M958.3548118728677,745.4564197656753a5,5 0 0 1 5,-5L964,740.4564197656753a5,5 0 0 1 5,5L969,748.2282098828376a5,5 0 0 1 -5,5L963.3548118728677,753.2282098828376a5,5 0 0 1 -5,-5Z" style="pointer-events: none; stroke-width: 1; fill: rgb(228, 241, 225); fill-opacity: 1; stroke: rgb(255, 255, 255); stroke-opacity: 1; opacity: 1;"/><g class="slicetext"><text data-notex="1" class="slicetext" text-anchor="start" x="0" y="0" style="font-family: 'Open Sans', verdana, arial, sans-serif; font-size: 12px; fill: rgb(68, 68, 68); fill-opacity: 1; white-space: pre;" transform="translate(961.3548118728677,745.1499528788297)scale(0.15395755574130923)"><tspan class="line" dy="0em" x="0" y="0">Edad</tspan><tspan class="line" dy="1.3em" x="0" y="0">1</tspan></text></g></g><g class="slice cursor-pointer"><path class="surface" d="M944.7096237457353,761.2282098828376a5,5 0 0 1 5,-5L950.3548118728677,756.2282098828376a5,5 0 0 1 5,5L955.3548118728677,764a5,5 0 0 1 -5,5L949.7096237457353,769a5,5 0 0 1 -5,-5Z" style="pointer-events: none; stroke-width: 1; fill: rgb(228, 241, 225); fill-opacity: 1; stroke: rgb(255, 255, 255); stroke-opacity: 1; opacity: 1;"/><g class="slicetext"><text data-notex="1" class="slicetext" text-anchor="start" x="0" y="0" style="font-family: 'Open Sans', verdana, arial, sans-serif; font-size: 12px; fill: rgb(68, 68, 68); fill-opacity: 1; white-space: pre;" transform="translate(947.7096237457353,759.59885619832)scale(0.033695119589309236)"><tspan class="line" dy="0em" x="0" y="0">Libertad De Asociacion</tspan><tspan class="line" dy="1.3em" x="0" y="0">1</tspan></text></g></g><g class="slice cursor-pointer"><path class="surface" d="M958.3548118728677,761.2282098828376a5,5 0 0 1 5,-5L964,756.2282098828376a5,5 0 0 1 5,5L969,764a5,5 0 0 1 -5,5L963.3548118728677,769a5,5 0 0 1 -5,-5Z" style="pointer-events: none; stroke-width: 1; fill: rgb(228, 241, 225); fill-opacity: 1; stroke: rgb(255, 255, 255); stroke-opacity: 1; opacity: 1;"/><g class="slicetext"><text data-notex="1" class="slicetext" text-anchor="start" x="0" y="0" style="font-family: 'Open Sans', verdana, arial, sans-serif; font-size: 12px; fill: rgb(68, 68, 68); fill-opacity: 1; white-space: pre;" transform="translate(961.3548118728677,760.4631843698094)scale(0.1122704079065212)"><tspan class="line" dy="0em" x="0" y="0">Marital</tspan><tspan class="line" dy="1.3em" x="0" y="0">1</tspan></text></g></g></g></g><g class="sunburstlayer"/><g class="glimages"/><defs id="topdefs-e32939"><g class="clips"/></defs><g class="layer-above"><g class="imagelayer"/><g class="shapelayer"/></g><g class="infolayer"><g class="g-gtitle"/></g></svg>